<?xml version="1.0" encoding="UTF-8" standalone="no"?><svg xmlns="http://www.w3.org/2000/svg" xmlns:xlink="http://www.w3.org/1999/xlink" contentStyleType="text/css" height="1575px" preserveAspectRatio="none" style="width:1645px;height:1575px;background:#FFFFFF;" version="1.1" viewBox="0 0 1645 1575" width="1645px" zoomAndPan="magnify"><defs/><g><!--MD5=[84718776d214be480e4c259efcb737fc]
class Main--><g id="elem_Main"><rect codeLine="2" fill="#F1F1F1" height="83.2188" id="Main" rx="2.5" ry="2.5" style="stroke:#181818;stroke-width:0.5;" width="136" x="1483.5" y="51"/><ellipse cx="1532.25" cy="67" fill="#ADD1B2" rx="11" ry="11" style="stroke:#181818;stroke-width:1.0;"/><path d="M1535.0156,62.875 Q1535.1719,62.6563 1535.3594,62.5469 Q1535.5469,62.4375 1535.7656,62.4375 Q1536.1406,62.4375 1536.375,62.6953 Q1536.6094,62.9531 1536.6094,63.5625 L1536.6094,65.0156 Q1536.6094,65.625 1536.375,65.8906 Q1536.1406,66.1563 1535.7656,66.1563 Q1535.4219,66.1563 1535.2188,65.9531 Q1535.0156,65.7656 1534.9063,65.25 Q1534.8594,64.8906 1534.6719,64.7031 Q1534.3438,64.3281 1533.7344,64.1094 Q1533.125,63.8906 1532.5,63.8906 Q1531.7344,63.8906 1531.1016,64.2188 Q1530.4688,64.5469 1529.9766,65.2969 Q1529.4844,66.0469 1529.4844,67.0781 L1529.4844,68.1719 Q1529.4844,69.4063 1530.375,70.2266 Q1531.2656,71.0469 1532.8594,71.0469 Q1533.7969,71.0469 1534.4531,70.7969 Q1534.8438,70.6406 1535.2656,70.2031 Q1535.5313,69.9375 1535.6797,69.8594 Q1535.8281,69.7813 1536.0313,69.7813 Q1536.3594,69.7813 1536.6172,70.0391 Q1536.875,70.2969 1536.875,70.6406 Q1536.875,70.9844 1536.5313,71.3906 Q1536.0313,71.9688 1535.2344,72.2969 Q1534.1563,72.75 1532.8594,72.75 Q1531.3438,72.75 1530.1406,72.125 Q1529.1563,71.625 1528.4688,70.5547 Q1527.7813,69.4844 1527.7813,68.2031 L1527.7813,67.0469 Q1527.7813,65.7188 1528.3984,64.5703 Q1529.0156,63.4219 1530.1094,62.8047 Q1531.2031,62.1875 1532.4375,62.1875 Q1533.1719,62.1875 1533.8203,62.3516 Q1534.4688,62.5156 1535.0156,62.875 Z " fill="#000000"/><text fill="#000000" font-family="sans-serif" font-size="14" lengthAdjust="spacing" textLength="30" x="1552.75" y="72.7285">Main</text><line style="stroke:#181818;stroke-width:0.5;" x1="1484.5" x2="1618.5" y1="83" y2="83"/><line style="stroke:#181818;stroke-width:0.5;" x1="1484.5" x2="1618.5" y1="91" y2="91"/><ellipse cx="1494.5" cy="105.3047" fill="#84BE84" rx="3" ry="3" style="stroke:#038048;stroke-width:1.0;"/><text fill="#000000" font-family="sans-serif" font-size="14" lengthAdjust="spacing" textLength="74" x="1503.5" y="109.5332">Main(): void</text><ellipse cx="1494.5" cy="122.9141" fill="#84BE84" rx="3" ry="3" style="stroke:#038048;stroke-width:1.0;"/><text fill="#000000" font-family="sans-serif" font-size="14" lengthAdjust="spacing" textLength="110" x="1503.5" y="127.1426">SelectRunMode()</text></g><!--MD5=[315b61b427ec618d6861d47eee00cca3]
class Console--><g id="elem_Console"><rect codeLine="7" fill="#F1F1F1" height="153.6563" id="Console" rx="2.5" ry="2.5" style="stroke:#181818;stroke-width:0.5;" width="230" x="1367.5" y="666"/><ellipse cx="1452.25" cy="682" fill="#ADD1B2" rx="11" ry="11" style="stroke:#181818;stroke-width:1.0;"/><path d="M1455.0156,677.875 Q1455.1719,677.6563 1455.3594,677.5469 Q1455.5469,677.4375 1455.7656,677.4375 Q1456.1406,677.4375 1456.375,677.6953 Q1456.6094,677.9531 1456.6094,678.5625 L1456.6094,680.0156 Q1456.6094,680.625 1456.375,680.8906 Q1456.1406,681.1563 1455.7656,681.1563 Q1455.4219,681.1563 1455.2188,680.9531 Q1455.0156,680.7656 1454.9063,680.25 Q1454.8594,679.8906 1454.6719,679.7031 Q1454.3438,679.3281 1453.7344,679.1094 Q1453.125,678.8906 1452.5,678.8906 Q1451.7344,678.8906 1451.1016,679.2188 Q1450.4688,679.5469 1449.9766,680.2969 Q1449.4844,681.0469 1449.4844,682.0781 L1449.4844,683.1719 Q1449.4844,684.4063 1450.375,685.2266 Q1451.2656,686.0469 1452.8594,686.0469 Q1453.7969,686.0469 1454.4531,685.7969 Q1454.8438,685.6406 1455.2656,685.2031 Q1455.5313,684.9375 1455.6797,684.8594 Q1455.8281,684.7813 1456.0313,684.7813 Q1456.3594,684.7813 1456.6172,685.0391 Q1456.875,685.2969 1456.875,685.6406 Q1456.875,685.9844 1456.5313,686.3906 Q1456.0313,686.9688 1455.2344,687.2969 Q1454.1563,687.75 1452.8594,687.75 Q1451.3438,687.75 1450.1406,687.125 Q1449.1563,686.625 1448.4688,685.5547 Q1447.7813,684.4844 1447.7813,683.2031 L1447.7813,682.0469 Q1447.7813,680.7188 1448.3984,679.5703 Q1449.0156,678.4219 1450.1094,677.8047 Q1451.2031,677.1875 1452.4375,677.1875 Q1453.1719,677.1875 1453.8203,677.3516 Q1454.4688,677.5156 1455.0156,677.875 Z " fill="#000000"/><text fill="#000000" font-family="sans-serif" font-size="14" lengthAdjust="spacing" textLength="52" x="1472.75" y="687.7285">Console</text><line style="stroke:#181818;stroke-width:0.5;" x1="1368.5" x2="1596.5" y1="698" y2="698"/><ellipse cx="1378.5" cy="712.3047" fill="none" rx="3" ry="3" style="stroke:#038048;stroke-width:1.0;"/><text fill="#000000" font-family="sans-serif" font-size="14" lengthAdjust="spacing" text-decoration="underline" textLength="203" x="1387.5" y="716.5332">ForegroundColor: ConsoleColor</text><ellipse cx="1378.5" cy="729.9141" fill="none" rx="3" ry="3" style="stroke:#038048;stroke-width:1.0;"/><text fill="#000000" font-family="sans-serif" font-size="14" lengthAdjust="spacing" text-decoration="underline" textLength="204" x="1387.5" y="734.1426">BackgroundColor: ConsoleColor</text><line style="stroke:#181818;stroke-width:0.5;" x1="1368.5" x2="1596.5" y1="741.2188" y2="741.2188"/><ellipse cx="1378.5" cy="755.5234" fill="#84BE84" rx="3" ry="3" style="stroke:#038048;stroke-width:1.0;"/><text fill="#000000" font-family="sans-serif" font-size="14" lengthAdjust="spacing" textLength="143" x="1387.5" y="759.752">WriteLine(string value)</text><ellipse cx="1378.5" cy="773.1328" fill="#84BE84" rx="3" ry="3" style="stroke:#038048;stroke-width:1.0;"/><text fill="#000000" font-family="sans-serif" font-size="14" lengthAdjust="spacing" textLength="116" x="1387.5" y="777.3613">Write(string value)</text><ellipse cx="1378.5" cy="790.7422" fill="#84BE84" rx="3" ry="3" style="stroke:#038048;stroke-width:1.0;"/><text fill="#000000" font-family="sans-serif" font-size="14" lengthAdjust="spacing" textLength="114" x="1387.5" y="794.9707">ReadLine(): string</text><ellipse cx="1378.5" cy="808.3516" fill="#84BE84" rx="3" ry="3" style="stroke:#038048;stroke-width:1.0;"/><text fill="#000000" font-family="sans-serif" font-size="14" lengthAdjust="spacing" textLength="44" x="1387.5" y="812.5801">Clear()</text></g><!--MD5=[b666b68b40ceacc7d81d7bc2c59b2151]
class ConsoleDisplay--><g id="elem_ConsoleDisplay"><rect codeLine="16" fill="#F1F1F1" height="83.2188" id="ConsoleDisplay" rx="2.5" ry="2.5" style="stroke:#181818;stroke-width:0.5;" width="311" x="1327" y="487.5"/><ellipse cx="1429.25" cy="503.5" fill="#ADD1B2" rx="11" ry="11" style="stroke:#181818;stroke-width:1.0;"/><path d="M1432.0156,499.375 Q1432.1719,499.1563 1432.3594,499.0469 Q1432.5469,498.9375 1432.7656,498.9375 Q1433.1406,498.9375 1433.375,499.1953 Q1433.6094,499.4531 1433.6094,500.0625 L1433.6094,501.5156 Q1433.6094,502.125 1433.375,502.3906 Q1433.1406,502.6563 1432.7656,502.6563 Q1432.4219,502.6563 1432.2188,502.4531 Q1432.0156,502.2656 1431.9063,501.75 Q1431.8594,501.3906 1431.6719,501.2031 Q1431.3438,500.8281 1430.7344,500.6094 Q1430.125,500.3906 1429.5,500.3906 Q1428.7344,500.3906 1428.1016,500.7188 Q1427.4688,501.0469 1426.9766,501.7969 Q1426.4844,502.5469 1426.4844,503.5781 L1426.4844,504.6719 Q1426.4844,505.9063 1427.375,506.7266 Q1428.2656,507.5469 1429.8594,507.5469 Q1430.7969,507.5469 1431.4531,507.2969 Q1431.8438,507.1406 1432.2656,506.7031 Q1432.5313,506.4375 1432.6797,506.3594 Q1432.8281,506.2813 1433.0313,506.2813 Q1433.3594,506.2813 1433.6172,506.5391 Q1433.875,506.7969 1433.875,507.1406 Q1433.875,507.4844 1433.5313,507.8906 Q1433.0313,508.4688 1432.2344,508.7969 Q1431.1563,509.25 1429.8594,509.25 Q1428.3438,509.25 1427.1406,508.625 Q1426.1563,508.125 1425.4688,507.0547 Q1424.7813,505.9844 1424.7813,504.7031 L1424.7813,503.5469 Q1424.7813,502.2188 1425.3984,501.0703 Q1426.0156,499.9219 1427.1094,499.3047 Q1428.2031,498.6875 1429.4375,498.6875 Q1430.1719,498.6875 1430.8203,498.8516 Q1431.4688,499.0156 1432.0156,499.375 Z " fill="#000000"/><text fill="#000000" font-family="sans-serif" font-size="14" lengthAdjust="spacing" textLength="98" x="1449.75" y="509.2285">ConsoleDisplay</text><line style="stroke:#181818;stroke-width:0.5;" x1="1328" x2="1637" y1="519.5" y2="519.5"/><line style="stroke:#181818;stroke-width:0.5;" x1="1328" x2="1637" y1="527.5" y2="527.5"/><ellipse cx="1338" cy="541.8047" fill="#84BE84" rx="3" ry="3" style="stroke:#038048;stroke-width:1.0;"/><text fill="#000000" font-family="sans-serif" font-size="14" lengthAdjust="spacing" textLength="183" x="1347" y="546.0332">DisplayPlayer(Player: player)</text><ellipse cx="1338" cy="559.4141" fill="#84BE84" rx="3" ry="3" style="stroke:#038048;stroke-width:1.0;"/><text fill="#000000" font-family="sans-serif" font-size="14" lengthAdjust="spacing" textLength="285" x="1347" y="563.6426">GetCardChoice(List&lt;ICards&gt;: choices): ICard</text></g><!--MD5=[292033ffe4750640675b59034298e578]
class Display--><g id="elem_Display"><rect codeLine="21" fill="#F1F1F1" height="100.8281" id="Display" rx="2.5" ry="2.5" style="stroke:#181818;stroke-width:0.5;" width="366" x="987.5" y="273.5"/><ellipse cx="1143.25" cy="289.5" fill="#A9DCDF" rx="11" ry="11" style="stroke:#181818;stroke-width:1.0;"/><path d="M1145.4375,291.2656 L1141.2969,291.2656 L1140.875,292.2969 L1141.2969,292.2969 Q1141.9063,292.2969 1142.1719,292.5313 Q1142.4375,292.7656 1142.4375,293.1563 Q1142.4375,293.5313 1142.1719,293.7656 Q1141.9063,294 1141.2969,294 L1139,294 Q1138.3906,294 1138.1328,293.7656 Q1137.875,293.5313 1137.875,293.1406 Q1137.875,292.7656 1138.1484,292.5234 Q1138.4219,292.2813 1139.0469,292.2969 L1141.7188,285.6406 L1140.6094,285.6406 Q1140,285.6406 1139.7344,285.4063 Q1139.4688,285.1719 1139.4688,284.7813 Q1139.4688,284.4063 1139.7344,284.1719 Q1140,283.9375 1140.6094,283.9375 L1144.2813,283.9375 L1147.6719,292.2969 Q1148.2656,292.2969 1148.4531,292.4375 Q1148.8438,292.7031 1148.8438,293.1563 Q1148.8438,293.5313 1148.5859,293.7656 Q1148.3281,294 1147.7188,294 L1145.4219,294 Q1144.8125,294 1144.5469,293.7656 Q1144.2813,293.5313 1144.2813,293.1406 Q1144.2813,292.7656 1144.5469,292.5313 Q1144.8125,292.2969 1145.4219,292.2969 L1145.8438,292.2969 L1145.4375,291.2656 Z M1144.7188,289.5625 L1143.3594,286.1875 L1141.9844,289.5625 L1144.7188,289.5625 Z " fill="#000000"/><text fill="#000000" font-family="sans-serif" font-size="14" font-style="italic" lengthAdjust="spacing" textLength="46" x="1163.75" y="295.2285">Display</text><line style="stroke:#181818;stroke-width:0.5;" x1="988.5" x2="1352.5" y1="305.5" y2="305.5"/><line style="stroke:#181818;stroke-width:0.5;" x1="988.5" x2="1352.5" y1="313.5" y2="313.5"/><ellipse cx="998.5" cy="327.8047" fill="#84BE84" rx="3" ry="3" style="stroke:#038048;stroke-width:1.0;"/><text fill="#000000" font-family="sans-serif" font-size="14" lengthAdjust="spacing" textLength="133" x="1007.5" y="332.0332">Display(Game game)</text><ellipse cx="998.5" cy="345.4141" fill="#84BE84" rx="3" ry="3" style="stroke:#038048;stroke-width:1.0;"/><text fill="#000000" font-family="sans-serif" font-size="14" lengthAdjust="spacing" textLength="238" x="1007.5" y="349.6426">abstract DisplayPlayer(Player: player)</text><ellipse cx="998.5" cy="363.0234" fill="#84BE84" rx="3" ry="3" style="stroke:#038048;stroke-width:1.0;"/><text fill="#000000" font-family="sans-serif" font-size="14" lengthAdjust="spacing" textLength="340" x="1007.5" y="367.252">abstract GetCardChoice(List&lt;ICards&gt;: choices): ICard</text></g><!--MD5=[37d4d0ff771b108f95f310710ddd3da3]
class StandardGame--><g id="elem_StandardGame"><rect codeLine="28" fill="#F1F1F1" height="83.2188" id="StandardGame" rx="2.5" ry="2.5" style="stroke:#181818;stroke-width:0.5;" width="128" x="1388.5" y="282.5"/><ellipse cx="1403.5" cy="298.5" fill="#ADD1B2" rx="11" ry="11" style="stroke:#181818;stroke-width:1.0;"/><path d="M1406.2656,294.375 Q1406.4219,294.1563 1406.6094,294.0469 Q1406.7969,293.9375 1407.0156,293.9375 Q1407.3906,293.9375 1407.625,294.1953 Q1407.8594,294.4531 1407.8594,295.0625 L1407.8594,296.5156 Q1407.8594,297.125 1407.625,297.3906 Q1407.3906,297.6563 1407.0156,297.6563 Q1406.6719,297.6563 1406.4688,297.4531 Q1406.2656,297.2656 1406.1563,296.75 Q1406.1094,296.3906 1405.9219,296.2031 Q1405.5938,295.8281 1404.9844,295.6094 Q1404.375,295.3906 1403.75,295.3906 Q1402.9844,295.3906 1402.3516,295.7188 Q1401.7188,296.0469 1401.2266,296.7969 Q1400.7344,297.5469 1400.7344,298.5781 L1400.7344,299.6719 Q1400.7344,300.9063 1401.625,301.7266 Q1402.5156,302.5469 1404.1094,302.5469 Q1405.0469,302.5469 1405.7031,302.2969 Q1406.0938,302.1406 1406.5156,301.7031 Q1406.7813,301.4375 1406.9297,301.3594 Q1407.0781,301.2813 1407.2813,301.2813 Q1407.6094,301.2813 1407.8672,301.5391 Q1408.125,301.7969 1408.125,302.1406 Q1408.125,302.4844 1407.7813,302.8906 Q1407.2813,303.4688 1406.4844,303.7969 Q1405.4063,304.25 1404.1094,304.25 Q1402.5938,304.25 1401.3906,303.625 Q1400.4063,303.125 1399.7188,302.0547 Q1399.0313,300.9844 1399.0313,299.7031 L1399.0313,298.5469 Q1399.0313,297.2188 1399.6484,296.0703 Q1400.2656,294.9219 1401.3594,294.3047 Q1402.4531,293.6875 1403.6875,293.6875 Q1404.4219,293.6875 1405.0703,293.8516 Q1405.7188,294.0156 1406.2656,294.375 Z " fill="#000000"/><text fill="#000000" font-family="sans-serif" font-size="14" lengthAdjust="spacing" textLength="96" x="1417.5" y="304.2285">StandardGame</text><line style="stroke:#181818;stroke-width:0.5;" x1="1389.5" x2="1515.5" y1="314.5" y2="314.5"/><line style="stroke:#181818;stroke-width:0.5;" x1="1389.5" x2="1515.5" y1="322.5" y2="322.5"/><ellipse cx="1399.5" cy="336.8047" fill="#84BE84" rx="3" ry="3" style="stroke:#038048;stroke-width:1.0;"/><text fill="#000000" font-family="sans-serif" font-size="14" lengthAdjust="spacing" textLength="80" x="1408.5" y="341.0332">GameLoop()</text><ellipse cx="1399.5" cy="354.4141" fill="#84BE84" rx="3" ry="3" style="stroke:#038048;stroke-width:1.0;"/><text fill="#000000" font-family="sans-serif" font-size="14" lengthAdjust="spacing" textLength="94" x="1408.5" y="358.6426">PlayerChoice()</text></g><!--MD5=[b6dcce5e5ef3c84b0b048d11301373dd]
class Game--><g id="elem_Game"><rect codeLine="33" fill="#F1F1F1" height="171.2656" id="Game" rx="2.5" ry="2.5" style="stroke:#181818;stroke-width:0.5;" width="188" x="840.5" y="7"/><ellipse cx="911.25" cy="23" fill="#A9DCDF" rx="11" ry="11" style="stroke:#181818;stroke-width:1.0;"/><path d="M913.4375,24.7656 L909.2969,24.7656 L908.875,25.7969 L909.2969,25.7969 Q909.9063,25.7969 910.1719,26.0313 Q910.4375,26.2656 910.4375,26.6563 Q910.4375,27.0313 910.1719,27.2656 Q909.9063,27.5 909.2969,27.5 L907,27.5 Q906.3906,27.5 906.1328,27.2656 Q905.875,27.0313 905.875,26.6406 Q905.875,26.2656 906.1484,26.0234 Q906.4219,25.7813 907.0469,25.7969 L909.7188,19.1406 L908.6094,19.1406 Q908,19.1406 907.7344,18.9063 Q907.4688,18.6719 907.4688,18.2813 Q907.4688,17.9063 907.7344,17.6719 Q908,17.4375 908.6094,17.4375 L912.2813,17.4375 L915.6719,25.7969 Q916.2656,25.7969 916.4531,25.9375 Q916.8438,26.2031 916.8438,26.6563 Q916.8438,27.0313 916.5859,27.2656 Q916.3281,27.5 915.7188,27.5 L913.4219,27.5 Q912.8125,27.5 912.5469,27.2656 Q912.2813,27.0313 912.2813,26.6406 Q912.2813,26.2656 912.5469,26.0313 Q912.8125,25.7969 913.4219,25.7969 L913.8438,25.7969 L913.4375,24.7656 Z M912.7188,23.0625 L911.3594,19.6875 L909.9844,23.0625 L912.7188,23.0625 Z " fill="#000000"/><text fill="#000000" font-family="sans-serif" font-size="14" font-style="italic" lengthAdjust="spacing" textLength="38" x="931.75" y="28.7285">Game</text><line style="stroke:#181818;stroke-width:0.5;" x1="841.5" x2="1027.5" y1="39" y2="39"/><rect fill="none" height="6" style="stroke:#C82930;stroke-width:1.0;" width="6" x="848.5" y="50.3047"/><text fill="#000000" font-family="sans-serif" font-size="14" lengthAdjust="spacing" textLength="158" x="860.5" y="57.5332">abstract PlayerLimmit: int</text><rect fill="none" height="6" style="stroke:#C82930;stroke-width:1.0;" width="6" x="848.5" y="67.9141"/><text fill="#000000" font-family="sans-serif" font-size="14" lengthAdjust="spacing" textLength="133" x="860.5" y="75.1426">Players: List&lt;Player&gt;</text><line style="stroke:#181818;stroke-width:0.5;" x1="841.5" x2="1027.5" y1="82.2188" y2="82.2188"/><ellipse cx="851.5" cy="96.5234" fill="#84BE84" rx="3" ry="3" style="stroke:#038048;stroke-width:1.0;"/><text fill="#000000" font-family="sans-serif" font-size="14" lengthAdjust="spacing" textLength="146" x="860.5" y="100.752">Game(Display: display)</text><ellipse cx="851.5" cy="114.1328" fill="#84BE84" rx="3" ry="3" style="stroke:#038048;stroke-width:1.0;"/><text fill="#000000" font-family="sans-serif" font-size="14" lengthAdjust="spacing" textLength="162" x="860.5" y="118.3613">AddPlayer(Player: player)</text><ellipse cx="851.5" cy="131.7422" fill="#84BE84" rx="3" ry="3" style="stroke:#038048;stroke-width:1.0;"/><text fill="#000000" font-family="sans-serif" font-size="14" lengthAdjust="spacing" textLength="78" x="860.5" y="135.9707">StartGame()</text><ellipse cx="851.5" cy="149.3516" fill="#84BE84" rx="3" ry="3" style="stroke:#038048;stroke-width:1.0;"/><text fill="#000000" font-family="sans-serif" font-size="14" lengthAdjust="spacing" textLength="135" x="860.5" y="153.5801">abstract GameLoop()</text><ellipse cx="851.5" cy="166.9609" fill="#84BE84" rx="3" ry="3" style="stroke:#038048;stroke-width:1.0;"/><text fill="#000000" font-family="sans-serif" font-size="14" lengthAdjust="spacing" textLength="149" x="860.5" y="171.1895">abstract PlayerChoice()</text></g><!--MD5=[2cb47ba637a0d19583e6199456f6ad0b]
class Player--><g id="elem_Player"><rect codeLine="43" fill="#F1F1F1" height="136.0469" id="Player" rx="2.5" ry="2.5" style="stroke:#181818;stroke-width:0.5;" width="232" x="649.5" y="256"/><ellipse cx="741.25" cy="272" fill="#ADD1B2" rx="11" ry="11" style="stroke:#181818;stroke-width:1.0;"/><path d="M744.0156,267.875 Q744.1719,267.6563 744.3594,267.5469 Q744.5469,267.4375 744.7656,267.4375 Q745.1406,267.4375 745.375,267.6953 Q745.6094,267.9531 745.6094,268.5625 L745.6094,270.0156 Q745.6094,270.625 745.375,270.8906 Q745.1406,271.1563 744.7656,271.1563 Q744.4219,271.1563 744.2188,270.9531 Q744.0156,270.7656 743.9063,270.25 Q743.8594,269.8906 743.6719,269.7031 Q743.3438,269.3281 742.7344,269.1094 Q742.125,268.8906 741.5,268.8906 Q740.7344,268.8906 740.1016,269.2188 Q739.4688,269.5469 738.9766,270.2969 Q738.4844,271.0469 738.4844,272.0781 L738.4844,273.1719 Q738.4844,274.4063 739.375,275.2266 Q740.2656,276.0469 741.8594,276.0469 Q742.7969,276.0469 743.4531,275.7969 Q743.8438,275.6406 744.2656,275.2031 Q744.5313,274.9375 744.6797,274.8594 Q744.8281,274.7813 745.0313,274.7813 Q745.3594,274.7813 745.6172,275.0391 Q745.875,275.2969 745.875,275.6406 Q745.875,275.9844 745.5313,276.3906 Q745.0313,276.9688 744.2344,277.2969 Q743.1563,277.75 741.8594,277.75 Q740.3438,277.75 739.1406,277.125 Q738.1563,276.625 737.4688,275.5547 Q736.7813,274.4844 736.7813,273.2031 L736.7813,272.0469 Q736.7813,270.7188 737.3984,269.5703 Q738.0156,268.4219 739.1094,267.8047 Q740.2031,267.1875 741.4375,267.1875 Q742.1719,267.1875 742.8203,267.3516 Q743.4688,267.5156 744.0156,267.875 Z " fill="#000000"/><text fill="#000000" font-family="sans-serif" font-size="14" lengthAdjust="spacing" textLength="40" x="761.75" y="277.7285">Player</text><line style="stroke:#181818;stroke-width:0.5;" x1="650.5" x2="880.5" y1="288" y2="288"/><ellipse cx="660.5" cy="302.3047" fill="none" rx="3" ry="3" style="stroke:#038048;stroke-width:1.0;"/><text fill="#000000" font-family="sans-serif" font-size="14" lengthAdjust="spacing" textLength="78" x="669.5" y="306.5332">name: string</text><ellipse cx="660.5" cy="319.9141" fill="none" rx="3" ry="3" style="stroke:#038048;stroke-width:1.0;"/><text fill="#000000" font-family="sans-serif" font-size="14" lengthAdjust="spacing" textLength="70" x="669.5" y="324.1426">deck: Deck</text><ellipse cx="660.5" cy="337.5234" fill="none" rx="3" ry="3" style="stroke:#038048;stroke-width:1.0;"/><text fill="#000000" font-family="sans-serif" font-size="14" lengthAdjust="spacing" textLength="79" x="669.5" y="341.752">Name: string</text><ellipse cx="660.5" cy="355.1328" fill="none" rx="3" ry="3" style="stroke:#038048;stroke-width:1.0;"/><text fill="#000000" font-family="sans-serif" font-size="14" lengthAdjust="spacing" textLength="72" x="669.5" y="359.3613">Deck: Deck</text><line style="stroke:#181818;stroke-width:0.5;" x1="650.5" x2="880.5" y1="366.4375" y2="366.4375"/><ellipse cx="660.5" cy="380.7422" fill="#84BE84" rx="3" ry="3" style="stroke:#038048;stroke-width:1.0;"/><text fill="#000000" font-family="sans-serif" font-size="14" lengthAdjust="spacing" textLength="206" x="669.5" y="384.9707">Player(name: string, deck: Deck)</text></g><!--MD5=[30299a58ba6b78debaaed5ddbb42f29a]
class Deck--><g id="elem_Deck"><rect codeLine="51" fill="#F1F1F1" height="118.4375" id="Deck" rx="2.5" ry="2.5" style="stroke:#181818;stroke-width:0.5;" width="243" x="602" y="470"/><ellipse cx="703.25" cy="486" fill="#ADD1B2" rx="11" ry="11" style="stroke:#181818;stroke-width:1.0;"/><path d="M706.0156,481.875 Q706.1719,481.6563 706.3594,481.5469 Q706.5469,481.4375 706.7656,481.4375 Q707.1406,481.4375 707.375,481.6953 Q707.6094,481.9531 707.6094,482.5625 L707.6094,484.0156 Q707.6094,484.625 707.375,484.8906 Q707.1406,485.1563 706.7656,485.1563 Q706.4219,485.1563 706.2188,484.9531 Q706.0156,484.7656 705.9063,484.25 Q705.8594,483.8906 705.6719,483.7031 Q705.3438,483.3281 704.7344,483.1094 Q704.125,482.8906 703.5,482.8906 Q702.7344,482.8906 702.1016,483.2188 Q701.4688,483.5469 700.9766,484.2969 Q700.4844,485.0469 700.4844,486.0781 L700.4844,487.1719 Q700.4844,488.4063 701.375,489.2266 Q702.2656,490.0469 703.8594,490.0469 Q704.7969,490.0469 705.4531,489.7969 Q705.8438,489.6406 706.2656,489.2031 Q706.5313,488.9375 706.6797,488.8594 Q706.8281,488.7813 707.0313,488.7813 Q707.3594,488.7813 707.6172,489.0391 Q707.875,489.2969 707.875,489.6406 Q707.875,489.9844 707.5313,490.3906 Q707.0313,490.9688 706.2344,491.2969 Q705.1563,491.75 703.8594,491.75 Q702.3438,491.75 701.1406,491.125 Q700.1563,490.625 699.4688,489.5547 Q698.7813,488.4844 698.7813,487.2031 L698.7813,486.0469 Q698.7813,484.7188 699.3984,483.5703 Q700.0156,482.4219 701.1094,481.8047 Q702.2031,481.1875 703.4375,481.1875 Q704.1719,481.1875 704.8203,481.3516 Q705.4688,481.5156 706.0156,481.875 Z " fill="#000000"/><text fill="#000000" font-family="sans-serif" font-size="14" lengthAdjust="spacing" textLength="32" x="723.75" y="491.7285">Deck</text><line style="stroke:#181818;stroke-width:0.5;" x1="603" x2="844" y1="502" y2="502"/><ellipse cx="613" cy="516.3047" fill="none" rx="3" ry="3" style="stroke:#038048;stroke-width:1.0;"/><text fill="#000000" font-family="sans-serif" font-size="14" lengthAdjust="spacing" textLength="129" x="622" y="520.5332">allCards: List&lt;Card&gt;</text><ellipse cx="613" cy="533.9141" fill="none" rx="3" ry="3" style="stroke:#038048;stroke-width:1.0;"/><text fill="#000000" font-family="sans-serif" font-size="14" lengthAdjust="spacing" textLength="123" x="622" y="538.1426">Stacks: List&lt;Stack&gt;</text><line style="stroke:#181818;stroke-width:0.5;" x1="603" x2="844" y1="545.2188" y2="545.2188"/><ellipse cx="613" cy="559.5234" fill="#84BE84" rx="3" ry="3" style="stroke:#038048;stroke-width:1.0;"/><text fill="#000000" font-family="sans-serif" font-size="14" lengthAdjust="spacing" textLength="217" x="622" y="563.752">GetStack(string stackName): stack</text><ellipse cx="613" cy="577.1328" fill="#84BE84" rx="3" ry="3" style="stroke:#038048;stroke-width:1.0;"/><text fill="#000000" font-family="sans-serif" font-size="14" lengthAdjust="spacing" textLength="145" x="622" y="581.3613">AddStack(string Name)</text></g><!--MD5=[1a47157467d69c83c0a10e9152875283]
class Stack--><g id="elem_Stack"><rect codeLine="58" fill="#F1F1F1" height="153.6563" id="Stack" rx="2.5" ry="2.5" style="stroke:#181818;stroke-width:0.5;" width="253" x="492" y="666"/><ellipse cx="596.75" cy="682" fill="#ADD1B2" rx="11" ry="11" style="stroke:#181818;stroke-width:1.0;"/><path d="M599.5156,677.875 Q599.6719,677.6563 599.8594,677.5469 Q600.0469,677.4375 600.2656,677.4375 Q600.6406,677.4375 600.875,677.6953 Q601.1094,677.9531 601.1094,678.5625 L601.1094,680.0156 Q601.1094,680.625 600.875,680.8906 Q600.6406,681.1563 600.2656,681.1563 Q599.9219,681.1563 599.7188,680.9531 Q599.5156,680.7656 599.4063,680.25 Q599.3594,679.8906 599.1719,679.7031 Q598.8438,679.3281 598.2344,679.1094 Q597.625,678.8906 597,678.8906 Q596.2344,678.8906 595.6016,679.2188 Q594.9688,679.5469 594.4766,680.2969 Q593.9844,681.0469 593.9844,682.0781 L593.9844,683.1719 Q593.9844,684.4063 594.875,685.2266 Q595.7656,686.0469 597.3594,686.0469 Q598.2969,686.0469 598.9531,685.7969 Q599.3438,685.6406 599.7656,685.2031 Q600.0313,684.9375 600.1797,684.8594 Q600.3281,684.7813 600.5313,684.7813 Q600.8594,684.7813 601.1172,685.0391 Q601.375,685.2969 601.375,685.6406 Q601.375,685.9844 601.0313,686.3906 Q600.5313,686.9688 599.7344,687.2969 Q598.6563,687.75 597.3594,687.75 Q595.8438,687.75 594.6406,687.125 Q593.6563,686.625 592.9688,685.5547 Q592.2813,684.4844 592.2813,683.2031 L592.2813,682.0469 Q592.2813,680.7188 592.8984,679.5703 Q593.5156,678.4219 594.6094,677.8047 Q595.7031,677.1875 596.9375,677.1875 Q597.6719,677.1875 598.3203,677.3516 Q598.9688,677.5156 599.5156,677.875 Z " fill="#000000"/><text fill="#000000" font-family="sans-serif" font-size="14" lengthAdjust="spacing" textLength="35" x="617.25" y="687.7285">Stack</text><line style="stroke:#181818;stroke-width:0.5;" x1="493" x2="744" y1="698" y2="698"/><ellipse cx="503" cy="712.3047" fill="none" rx="3" ry="3" style="stroke:#038048;stroke-width:1.0;"/><text fill="#000000" font-family="sans-serif" font-size="14" lengthAdjust="spacing" textLength="148" x="512" y="716.5332">stackCards: List&lt;Card&gt;</text><ellipse cx="503" cy="729.9141" fill="none" rx="3" ry="3" style="stroke:#038048;stroke-width:1.0;"/><text fill="#000000" font-family="sans-serif" font-size="14" lengthAdjust="spacing" textLength="84" x="512" y="734.1426">StackSize: int</text><ellipse cx="503" cy="747.5234" fill="none" rx="3" ry="3" style="stroke:#038048;stroke-width:1.0;"/><text fill="#000000" font-family="sans-serif" font-size="14" lengthAdjust="spacing" textLength="114" x="512" y="751.752">StackName: string</text><line style="stroke:#181818;stroke-width:0.5;" x1="493" x2="744" y1="758.8281" y2="758.8281"/><ellipse cx="503" cy="773.1328" fill="#84BE84" rx="3" ry="3" style="stroke:#038048;stroke-width:1.0;"/><text fill="#000000" font-family="sans-serif" font-size="14" lengthAdjust="spacing" textLength="133" x="512" y="777.3613">AddCard(Card: card)</text><ellipse cx="503" cy="790.7422" fill="#84BE84" rx="3" ry="3" style="stroke:#038048;stroke-width:1.0;"/><text fill="#000000" font-family="sans-serif" font-size="14" lengthAdjust="spacing" textLength="227" x="512" y="794.9707">AddCard(IEnumarble&lt;Card&gt;: cards)</text><ellipse cx="503" cy="808.3516" fill="#84BE84" rx="3" ry="3" style="stroke:#038048;stroke-width:1.0;"/><text fill="#000000" font-family="sans-serif" font-size="14" lengthAdjust="spacing" textLength="130" x="512" y="812.5801">GetNextCard(): Card</text></g><!--MD5=[da22fc1c56e8fedd22740ba20e3c85e2]
class SortableStack--><g id="elem_SortableStack"><rect codeLine="67" fill="#F1F1F1" height="65.6094" id="SortableStack" rx="2.5" ry="2.5" style="stroke:#181818;stroke-width:0.5;" width="120" x="318.5" y="942"/><ellipse cx="333.5" cy="958" fill="#ADD1B2" rx="11" ry="11" style="stroke:#181818;stroke-width:1.0;"/><path d="M336.2656,953.875 Q336.4219,953.6563 336.6094,953.5469 Q336.7969,953.4375 337.0156,953.4375 Q337.3906,953.4375 337.625,953.6953 Q337.8594,953.9531 337.8594,954.5625 L337.8594,956.0156 Q337.8594,956.625 337.625,956.8906 Q337.3906,957.1563 337.0156,957.1563 Q336.6719,957.1563 336.4688,956.9531 Q336.2656,956.7656 336.1563,956.25 Q336.1094,955.8906 335.9219,955.7031 Q335.5938,955.3281 334.9844,955.1094 Q334.375,954.8906 333.75,954.8906 Q332.9844,954.8906 332.3516,955.2188 Q331.7188,955.5469 331.2266,956.2969 Q330.7344,957.0469 330.7344,958.0781 L330.7344,959.1719 Q330.7344,960.4063 331.625,961.2266 Q332.5156,962.0469 334.1094,962.0469 Q335.0469,962.0469 335.7031,961.7969 Q336.0938,961.6406 336.5156,961.2031 Q336.7813,960.9375 336.9297,960.8594 Q337.0781,960.7813 337.2813,960.7813 Q337.6094,960.7813 337.8672,961.0391 Q338.125,961.2969 338.125,961.6406 Q338.125,961.9844 337.7813,962.3906 Q337.2813,962.9688 336.4844,963.2969 Q335.4063,963.75 334.1094,963.75 Q332.5938,963.75 331.3906,963.125 Q330.4063,962.625 329.7188,961.5547 Q329.0313,960.4844 329.0313,959.2031 L329.0313,958.0469 Q329.0313,956.7188 329.6484,955.5703 Q330.2656,954.4219 331.3594,953.8047 Q332.4531,953.1875 333.6875,953.1875 Q334.4219,953.1875 335.0703,953.3516 Q335.7188,953.5156 336.2656,953.875 Z " fill="#000000"/><text fill="#000000" font-family="sans-serif" font-size="14" lengthAdjust="spacing" textLength="88" x="347.5" y="963.7285">SortableStack</text><line style="stroke:#181818;stroke-width:0.5;" x1="319.5" x2="437.5" y1="974" y2="974"/><line style="stroke:#181818;stroke-width:0.5;" x1="319.5" x2="437.5" y1="982" y2="982"/><ellipse cx="329.5" cy="996.3047" fill="#84BE84" rx="3" ry="3" style="stroke:#038048;stroke-width:1.0;"/><text fill="#000000" font-family="sans-serif" font-size="14" lengthAdjust="spacing" textLength="36" x="338.5" y="1000.5332">Sort()</text></g><!--MD5=[7a12621ea9ca3f471d31790e0a0df6f3]
class ShuffleableStack--><g id="elem_ShuffleableStack"><rect codeLine="71" fill="#F1F1F1" height="65.6094" id="ShuffleableStack" rx="2.5" ry="2.5" style="stroke:#181818;stroke-width:0.5;" width="138" x="487.5" y="942"/><ellipse cx="502.5" cy="958" fill="#ADD1B2" rx="11" ry="11" style="stroke:#181818;stroke-width:1.0;"/><path d="M505.2656,953.875 Q505.4219,953.6563 505.6094,953.5469 Q505.7969,953.4375 506.0156,953.4375 Q506.3906,953.4375 506.625,953.6953 Q506.8594,953.9531 506.8594,954.5625 L506.8594,956.0156 Q506.8594,956.625 506.625,956.8906 Q506.3906,957.1563 506.0156,957.1563 Q505.6719,957.1563 505.4688,956.9531 Q505.2656,956.7656 505.1563,956.25 Q505.1094,955.8906 504.9219,955.7031 Q504.5938,955.3281 503.9844,955.1094 Q503.375,954.8906 502.75,954.8906 Q501.9844,954.8906 501.3516,955.2188 Q500.7188,955.5469 500.2266,956.2969 Q499.7344,957.0469 499.7344,958.0781 L499.7344,959.1719 Q499.7344,960.4063 500.625,961.2266 Q501.5156,962.0469 503.1094,962.0469 Q504.0469,962.0469 504.7031,961.7969 Q505.0938,961.6406 505.5156,961.2031 Q505.7813,960.9375 505.9297,960.8594 Q506.0781,960.7813 506.2813,960.7813 Q506.6094,960.7813 506.8672,961.0391 Q507.125,961.2969 507.125,961.6406 Q507.125,961.9844 506.7813,962.3906 Q506.2813,962.9688 505.4844,963.2969 Q504.4063,963.75 503.1094,963.75 Q501.5938,963.75 500.3906,963.125 Q499.4063,962.625 498.7188,961.5547 Q498.0313,960.4844 498.0313,959.2031 L498.0313,958.0469 Q498.0313,956.7188 498.6484,955.5703 Q499.2656,954.4219 500.3594,953.8047 Q501.4531,953.1875 502.6875,953.1875 Q503.4219,953.1875 504.0703,953.3516 Q504.7188,953.5156 505.2656,953.875 Z " fill="#000000"/><text fill="#000000" font-family="sans-serif" font-size="14" lengthAdjust="spacing" textLength="106" x="516.5" y="963.7285">ShuffleableStack</text><line style="stroke:#181818;stroke-width:0.5;" x1="488.5" x2="624.5" y1="974" y2="974"/><line style="stroke:#181818;stroke-width:0.5;" x1="488.5" x2="624.5" y1="982" y2="982"/><ellipse cx="498.5" cy="996.3047" fill="#84BE84" rx="3" ry="3" style="stroke:#038048;stroke-width:1.0;"/><text fill="#000000" font-family="sans-serif" font-size="14" lengthAdjust="spacing" textLength="54" x="507.5" y="1000.5332">Shuffle()</text></g><!--MD5=[b0b3036c4561bd4fbe0cf7a91a6f76fc]
class CardFactory--><g id="elem_CardFactory"><rect codeLine="75" fill="#F1F1F1" height="188.875" id="CardFactory" rx="2.5" ry="2.5" style="stroke:#181818;stroke-width:0.5;" width="467" x="373" y="1130.5"/><ellipse cx="562.75" cy="1146.5" fill="#ADD1B2" rx="11" ry="11" style="stroke:#181818;stroke-width:1.0;"/><path d="M565.5156,1142.375 Q565.6719,1142.1563 565.8594,1142.0469 Q566.0469,1141.9375 566.2656,1141.9375 Q566.6406,1141.9375 566.875,1142.1953 Q567.1094,1142.4531 567.1094,1143.0625 L567.1094,1144.5156 Q567.1094,1145.125 566.875,1145.3906 Q566.6406,1145.6563 566.2656,1145.6563 Q565.9219,1145.6563 565.7188,1145.4531 Q565.5156,1145.2656 565.4063,1144.75 Q565.3594,1144.3906 565.1719,1144.2031 Q564.8438,1143.8281 564.2344,1143.6094 Q563.625,1143.3906 563,1143.3906 Q562.2344,1143.3906 561.6016,1143.7188 Q560.9688,1144.0469 560.4766,1144.7969 Q559.9844,1145.5469 559.9844,1146.5781 L559.9844,1147.6719 Q559.9844,1148.9063 560.875,1149.7266 Q561.7656,1150.5469 563.3594,1150.5469 Q564.2969,1150.5469 564.9531,1150.2969 Q565.3438,1150.1406 565.7656,1149.7031 Q566.0313,1149.4375 566.1797,1149.3594 Q566.3281,1149.2813 566.5313,1149.2813 Q566.8594,1149.2813 567.1172,1149.5391 Q567.375,1149.7969 567.375,1150.1406 Q567.375,1150.4844 567.0313,1150.8906 Q566.5313,1151.4688 565.7344,1151.7969 Q564.6563,1152.25 563.3594,1152.25 Q561.8438,1152.25 560.6406,1151.625 Q559.6563,1151.125 558.9688,1150.0547 Q558.2813,1148.9844 558.2813,1147.7031 L558.2813,1146.5469 Q558.2813,1145.2188 558.8984,1144.0703 Q559.5156,1142.9219 560.6094,1142.3047 Q561.7031,1141.6875 562.9375,1141.6875 Q563.6719,1141.6875 564.3203,1141.8516 Q564.9688,1142.0156 565.5156,1142.375 Z " fill="#000000"/><text fill="#000000" font-family="sans-serif" font-size="14" lengthAdjust="spacing" textLength="79" x="583.25" y="1152.2285">CardFactory</text><line style="stroke:#181818;stroke-width:0.5;" x1="374" x2="839" y1="1162.5" y2="1162.5"/><rect fill="none" height="6" style="stroke:#C82930;stroke-width:1.0;" width="6" x="381" y="1173.8047"/><text fill="#000000" font-family="sans-serif" font-size="14" lengthAdjust="spacing" textLength="142" x="393" y="1181.0332">ConstuctedCard: Card</text><line style="stroke:#181818;stroke-width:0.5;" x1="374" x2="839" y1="1188.1094" y2="1188.1094"/><ellipse cx="384" cy="1202.4141" fill="#84BE84" rx="3" ry="3" style="stroke:#038048;stroke-width:1.0;"/><text fill="#000000" font-family="sans-serif" font-size="14" lengthAdjust="spacing" textLength="67" x="393" y="1206.6426">NewCard()</text><ellipse cx="384" cy="1220.0234" fill="#84BE84" rx="3" ry="3" style="stroke:#038048;stroke-width:1.0;"/><text fill="#000000" font-family="sans-serif" font-size="14" lengthAdjust="spacing" textLength="402" x="393" y="1224.252">AddAttackDecorator(double: offset, Action: condition (Optional))</text><ellipse cx="384" cy="1237.6328" fill="#84BE84" rx="3" ry="3" style="stroke:#038048;stroke-width:1.0;"/><text fill="#000000" font-family="sans-serif" font-size="14" lengthAdjust="spacing" textLength="427" x="393" y="1241.8613">AddAttackDecorator(double: multiplyer, Action: condition (Optional))</text><ellipse cx="384" cy="1255.2422" fill="#84BE84" rx="3" ry="3" style="stroke:#038048;stroke-width:1.0;"/><text fill="#000000" font-family="sans-serif" font-size="14" lengthAdjust="spacing" textLength="416" x="393" y="1259.4707">AddDefenseDecorator(double: offset, Action: condition (Optional))</text><ellipse cx="384" cy="1272.8516" fill="#84BE84" rx="3" ry="3" style="stroke:#038048;stroke-width:1.0;"/><text fill="#000000" font-family="sans-serif" font-size="14" lengthAdjust="spacing" textLength="441" x="393" y="1277.0801">AddDefenseDecorator(double: multiplyer, Action: condition (Optional))</text><ellipse cx="384" cy="1290.4609" fill="#84BE84" rx="3" ry="3" style="stroke:#038048;stroke-width:1.0;"/><text fill="#000000" font-family="sans-serif" font-size="14" lengthAdjust="spacing" textLength="396" x="393" y="1294.6895">AddTrapAbilityDecorator(Action: Condition, Action: TrapAction)</text><ellipse cx="384" cy="1308.0703" fill="#84BE84" rx="3" ry="3" style="stroke:#038048;stroke-width:1.0;"/><text fill="#000000" font-family="sans-serif" font-size="14" lengthAdjust="spacing" textLength="180" x="393" y="1312.2988">GetConstructedCard(): Card</text></g><!--MD5=[b3d1b7ce0b9aeb447f10a862a70f6cde]
class ICard--><g id="elem_ICard"><rect codeLine="87" fill="#F1F1F1" height="153.6563" id="ICard" rx="2.5" ry="2.5" style="stroke:#181818;stroke-width:0.5;" width="145" x="701" y="898"/><ellipse cx="751.75" cy="914" fill="#B4A7E5" rx="11" ry="11" style="stroke:#181818;stroke-width:1.0;"/><path d="M752.7031,910.6406 L752.7031,917.2969 L754.4219,917.2969 Q755.0313,917.2969 755.2969,917.5313 Q755.5625,917.7656 755.5625,918.1563 Q755.5625,918.5313 755.2969,918.7656 Q755.0313,919 754.4219,919 L749.2813,919 Q748.6719,919 748.4063,918.7656 Q748.1406,918.5313 748.1406,918.1406 Q748.1406,917.7656 748.4063,917.5313 Q748.6719,917.2969 749.2813,917.2969 L751,917.2969 L751,910.6406 L749.2813,910.6406 Q748.6719,910.6406 748.4063,910.4063 Q748.1406,910.1719 748.1406,909.7813 Q748.1406,909.4063 748.4063,909.1719 Q748.6719,908.9375 749.2813,908.9375 L754.4219,908.9375 Q755.0313,908.9375 755.2969,909.1719 Q755.5625,909.4063 755.5625,909.7813 Q755.5625,910.1719 755.2969,910.4063 Q755.0313,910.6406 754.4219,910.6406 L752.7031,910.6406 Z " fill="#000000"/><text fill="#000000" font-family="sans-serif" font-size="14" font-style="italic" lengthAdjust="spacing" textLength="35" x="772.25" y="919.7285">ICard</text><line style="stroke:#181818;stroke-width:0.5;" x1="702" x2="845" y1="930" y2="930"/><ellipse cx="712" cy="944.3047" fill="none" rx="3" ry="3" style="stroke:#038048;stroke-width:1.0;"/><text fill="#000000" font-family="sans-serif" font-size="14" lengthAdjust="spacing" textLength="46" x="721" y="948.5332">Id: guid</text><ellipse cx="712" cy="961.9141" fill="none" rx="3" ry="3" style="stroke:#038048;stroke-width:1.0;"/><text fill="#000000" font-family="sans-serif" font-size="14" lengthAdjust="spacing" textLength="79" x="721" y="966.1426">Name: string</text><ellipse cx="712" cy="979.5234" fill="none" rx="3" ry="3" style="stroke:#038048;stroke-width:1.0;"/><text fill="#000000" font-family="sans-serif" font-size="14" lengthAdjust="spacing" textLength="114" x="721" y="983.752">Description: string</text><line style="stroke:#181818;stroke-width:0.5;" x1="702" x2="845" y1="990.8281" y2="990.8281"/><ellipse cx="712" cy="1005.1328" fill="#84BE84" rx="3" ry="3" style="stroke:#038048;stroke-width:1.0;"/><text fill="#000000" font-family="sans-serif" font-size="14" lengthAdjust="spacing" textLength="109" x="721" y="1009.3613">GetUseCost(): int</text><ellipse cx="712" cy="1022.7422" fill="#84BE84" rx="3" ry="3" style="stroke:#038048;stroke-width:1.0;"/><text fill="#000000" font-family="sans-serif" font-size="14" lengthAdjust="spacing" textLength="119" x="721" y="1026.9707">GetUseAttack(): int</text><ellipse cx="712" cy="1040.3516" fill="#84BE84" rx="3" ry="3" style="stroke:#038048;stroke-width:1.0;"/><text fill="#000000" font-family="sans-serif" font-size="14" lengthAdjust="spacing" textLength="109" x="721" y="1044.5801">GetDefense(): int</text></g><!--MD5=[646e334e60fc35c68f3172b5b515034e]
class CardDecorator--><g id="elem_CardDecorator"><rect codeLine="96" fill="#F1F1F1" height="224.0938" id="CardDecorator" rx="2.5" ry="2.5" style="stroke:#181818;stroke-width:0.5;" width="331" x="7" y="1113"/><ellipse cx="121.25" cy="1129" fill="#A9DCDF" rx="11" ry="11" style="stroke:#181818;stroke-width:1.0;"/><path d="M123.4375,1130.7656 L119.2969,1130.7656 L118.875,1131.7969 L119.2969,1131.7969 Q119.9063,1131.7969 120.1719,1132.0313 Q120.4375,1132.2656 120.4375,1132.6563 Q120.4375,1133.0313 120.1719,1133.2656 Q119.9063,1133.5 119.2969,1133.5 L117,1133.5 Q116.3906,1133.5 116.1328,1133.2656 Q115.875,1133.0313 115.875,1132.6406 Q115.875,1132.2656 116.1484,1132.0234 Q116.4219,1131.7813 117.0469,1131.7969 L119.7188,1125.1406 L118.6094,1125.1406 Q118,1125.1406 117.7344,1124.9063 Q117.4688,1124.6719 117.4688,1124.2813 Q117.4688,1123.9063 117.7344,1123.6719 Q118,1123.4375 118.6094,1123.4375 L122.2813,1123.4375 L125.6719,1131.7969 Q126.2656,1131.7969 126.4531,1131.9375 Q126.8438,1132.2031 126.8438,1132.6563 Q126.8438,1133.0313 126.5859,1133.2656 Q126.3281,1133.5 125.7188,1133.5 L123.4219,1133.5 Q122.8125,1133.5 122.5469,1133.2656 Q122.2813,1133.0313 122.2813,1132.6406 Q122.2813,1132.2656 122.5469,1132.0313 Q122.8125,1131.7969 123.4219,1131.7969 L123.8438,1131.7969 L123.4375,1130.7656 Z M122.7188,1129.0625 L121.3594,1125.6875 L119.9844,1129.0625 L122.7188,1129.0625 Z " fill="#000000"/><text fill="#000000" font-family="sans-serif" font-size="14" font-style="italic" lengthAdjust="spacing" textLength="94" x="141.75" y="1134.7285">CardDecorator</text><line style="stroke:#181818;stroke-width:0.5;" x1="8" x2="337" y1="1145" y2="1145"/><ellipse cx="18" cy="1159.3047" fill="none" rx="3" ry="3" style="stroke:#038048;stroke-width:1.0;"/><text fill="#000000" font-family="sans-serif" font-size="14" lengthAdjust="spacing" textLength="46" x="27" y="1163.5332">Id: guid</text><ellipse cx="18" cy="1176.9141" fill="none" rx="3" ry="3" style="stroke:#038048;stroke-width:1.0;"/><text fill="#000000" font-family="sans-serif" font-size="14" lengthAdjust="spacing" textLength="79" x="27" y="1181.1426">Name: string</text><ellipse cx="18" cy="1194.5234" fill="none" rx="3" ry="3" style="stroke:#038048;stroke-width:1.0;"/><text fill="#000000" font-family="sans-serif" font-size="14" lengthAdjust="spacing" textLength="150" x="27" y="1198.752">DecorationName: String</text><ellipse cx="18" cy="1212.1328" fill="none" rx="3" ry="3" style="stroke:#038048;stroke-width:1.0;"/><text fill="#000000" font-family="sans-serif" font-size="14" lengthAdjust="spacing" textLength="116" x="27" y="1216.3613">Multaplyer: double</text><ellipse cx="18" cy="1229.7422" fill="none" rx="3" ry="3" style="stroke:#038048;stroke-width:1.0;"/><text fill="#000000" font-family="sans-serif" font-size="14" lengthAdjust="spacing" textLength="89" x="27" y="1233.9707">Offset: double</text><ellipse cx="18" cy="1247.3516" fill="none" rx="3" ry="3" style="stroke:#038048;stroke-width:1.0;"/><text fill="#000000" font-family="sans-serif" font-size="14" lengthAdjust="spacing" textLength="107" x="27" y="1251.5801">Condition: Action</text><line style="stroke:#181818;stroke-width:0.5;" x1="8" x2="337" y1="1258.6563" y2="1258.6563"/><ellipse cx="18" cy="1272.9609" fill="#84BE84" rx="3" ry="3" style="stroke:#038048;stroke-width:1.0;"/><text fill="#000000" font-family="sans-serif" font-size="14" lengthAdjust="spacing" textLength="305" x="27" y="1277.1895">CardDecorator(double multiplyer, double: offset)</text><ellipse cx="18" cy="1290.5703" fill="#84BE84" rx="3" ry="3" style="stroke:#038048;stroke-width:1.0;"/><text fill="#000000" font-family="sans-serif" font-size="14" lengthAdjust="spacing" textLength="202" x="27" y="1294.7988">AddCondition(Action: Condition)</text><ellipse cx="18" cy="1308.1797" fill="#84BE84" rx="3" ry="3" style="stroke:#038048;stroke-width:1.0;"/><text fill="#000000" font-family="sans-serif" font-size="14" lengthAdjust="spacing" textLength="153" x="27" y="1312.4082">Virtual GetUseCost(): int</text><ellipse cx="18" cy="1325.7891" fill="#84BE84" rx="3" ry="3" style="stroke:#038048;stroke-width:1.0;"/><text fill="#000000" font-family="sans-serif" font-size="14" lengthAdjust="spacing" textLength="163" x="27" y="1330.0176">Virtual GetUseAttack(): int</text></g><!--MD5=[ae994add09bb5e63b44769103099dc0b]
class AttackDecorator--><g id="elem_AttackDecorator"><rect codeLine="109" fill="#F1F1F1" height="65.6094" id="AttackDecorator" rx="2.5" ry="2.5" style="stroke:#181818;stroke-width:0.5;" width="145" x="517" y="1459"/><ellipse cx="536.95" cy="1475" fill="#ADD1B2" rx="11" ry="11" style="stroke:#181818;stroke-width:1.0;"/><path d="M539.7156,1470.875 Q539.8719,1470.6563 540.0594,1470.5469 Q540.2469,1470.4375 540.4656,1470.4375 Q540.8406,1470.4375 541.075,1470.6953 Q541.3094,1470.9531 541.3094,1471.5625 L541.3094,1473.0156 Q541.3094,1473.625 541.075,1473.8906 Q540.8406,1474.1563 540.4656,1474.1563 Q540.1219,1474.1563 539.9188,1473.9531 Q539.7156,1473.7656 539.6063,1473.25 Q539.5594,1472.8906 539.3719,1472.7031 Q539.0438,1472.3281 538.4344,1472.1094 Q537.825,1471.8906 537.2,1471.8906 Q536.4344,1471.8906 535.8016,1472.2188 Q535.1688,1472.5469 534.6766,1473.2969 Q534.1844,1474.0469 534.1844,1475.0781 L534.1844,1476.1719 Q534.1844,1477.4063 535.075,1478.2266 Q535.9656,1479.0469 537.5594,1479.0469 Q538.4969,1479.0469 539.1531,1478.7969 Q539.5438,1478.6406 539.9656,1478.2031 Q540.2313,1477.9375 540.3797,1477.8594 Q540.5281,1477.7813 540.7313,1477.7813 Q541.0594,1477.7813 541.3172,1478.0391 Q541.575,1478.2969 541.575,1478.6406 Q541.575,1478.9844 541.2313,1479.3906 Q540.7313,1479.9688 539.9344,1480.2969 Q538.8563,1480.75 537.5594,1480.75 Q536.0438,1480.75 534.8406,1480.125 Q533.8563,1479.625 533.1688,1478.5547 Q532.4813,1477.4844 532.4813,1476.2031 L532.4813,1475.0469 Q532.4813,1473.7188 533.0984,1472.5703 Q533.7156,1471.4219 534.8094,1470.8047 Q535.9031,1470.1875 537.1375,1470.1875 Q537.8719,1470.1875 538.5203,1470.3516 Q539.1688,1470.5156 539.7156,1470.875 Z " fill="#000000"/><text fill="#000000" font-family="sans-serif" font-size="14" lengthAdjust="spacing" textLength="102" x="552.05" y="1480.7285">AttackDecorator</text><line style="stroke:#181818;stroke-width:0.5;" x1="518" x2="661" y1="1491" y2="1491"/><line style="stroke:#181818;stroke-width:0.5;" x1="518" x2="661" y1="1499" y2="1499"/><ellipse cx="528" cy="1513.3047" fill="#84BE84" rx="3" ry="3" style="stroke:#038048;stroke-width:1.0;"/><text fill="#000000" font-family="sans-serif" font-size="14" lengthAdjust="spacing" textLength="119" x="537" y="1517.5332">GetUseAttack(): int</text></g><!--MD5=[f5188b816be6a715a64e1dc31e4f472d]
class CostDecorator--><g id="elem_CostDecorator"><rect codeLine="113" fill="#F1F1F1" height="65.6094" id="CostDecorator" rx="2.5" ry="2.5" style="stroke:#181818;stroke-width:0.5;" width="135" x="139" y="1459"/><ellipse cx="158.95" cy="1475" fill="#ADD1B2" rx="11" ry="11" style="stroke:#181818;stroke-width:1.0;"/><path d="M161.7156,1470.875 Q161.8719,1470.6563 162.0594,1470.5469 Q162.2469,1470.4375 162.4656,1470.4375 Q162.8406,1470.4375 163.075,1470.6953 Q163.3094,1470.9531 163.3094,1471.5625 L163.3094,1473.0156 Q163.3094,1473.625 163.075,1473.8906 Q162.8406,1474.1563 162.4656,1474.1563 Q162.1219,1474.1563 161.9188,1473.9531 Q161.7156,1473.7656 161.6063,1473.25 Q161.5594,1472.8906 161.3719,1472.7031 Q161.0438,1472.3281 160.4344,1472.1094 Q159.825,1471.8906 159.2,1471.8906 Q158.4344,1471.8906 157.8016,1472.2188 Q157.1688,1472.5469 156.6766,1473.2969 Q156.1844,1474.0469 156.1844,1475.0781 L156.1844,1476.1719 Q156.1844,1477.4063 157.075,1478.2266 Q157.9656,1479.0469 159.5594,1479.0469 Q160.4969,1479.0469 161.1531,1478.7969 Q161.5438,1478.6406 161.9656,1478.2031 Q162.2313,1477.9375 162.3797,1477.8594 Q162.5281,1477.7813 162.7313,1477.7813 Q163.0594,1477.7813 163.3172,1478.0391 Q163.575,1478.2969 163.575,1478.6406 Q163.575,1478.9844 163.2313,1479.3906 Q162.7313,1479.9688 161.9344,1480.2969 Q160.8563,1480.75 159.5594,1480.75 Q158.0438,1480.75 156.8406,1480.125 Q155.8563,1479.625 155.1688,1478.5547 Q154.4813,1477.4844 154.4813,1476.2031 L154.4813,1475.0469 Q154.4813,1473.7188 155.0984,1472.5703 Q155.7156,1471.4219 156.8094,1470.8047 Q157.9031,1470.1875 159.1375,1470.1875 Q159.8719,1470.1875 160.5203,1470.3516 Q161.1688,1470.5156 161.7156,1470.875 Z " fill="#000000"/><text fill="#000000" font-family="sans-serif" font-size="14" lengthAdjust="spacing" textLength="92" x="174.05" y="1480.7285">CostDecorator</text><line style="stroke:#181818;stroke-width:0.5;" x1="140" x2="273" y1="1491" y2="1491"/><line style="stroke:#181818;stroke-width:0.5;" x1="140" x2="273" y1="1499" y2="1499"/><ellipse cx="150" cy="1513.3047" fill="#84BE84" rx="3" ry="3" style="stroke:#038048;stroke-width:1.0;"/><text fill="#000000" font-family="sans-serif" font-size="14" lengthAdjust="spacing" textLength="109" x="159" y="1517.5332">GetUseCost(): int</text></g><!--MD5=[45607591d668f48faaed94f1611bd90a]
class DefenseDecorator--><g id="elem_DefenseDecorator"><rect codeLine="117" fill="#F1F1F1" height="65.6094" id="DefenseDecorator" rx="2.5" ry="2.5" style="stroke:#181818;stroke-width:0.5;" width="148" x="325.5" y="1459"/><ellipse cx="340.5" cy="1475" fill="#ADD1B2" rx="11" ry="11" style="stroke:#181818;stroke-width:1.0;"/><path d="M343.2656,1470.875 Q343.4219,1470.6563 343.6094,1470.5469 Q343.7969,1470.4375 344.0156,1470.4375 Q344.3906,1470.4375 344.625,1470.6953 Q344.8594,1470.9531 344.8594,1471.5625 L344.8594,1473.0156 Q344.8594,1473.625 344.625,1473.8906 Q344.3906,1474.1563 344.0156,1474.1563 Q343.6719,1474.1563 343.4688,1473.9531 Q343.2656,1473.7656 343.1563,1473.25 Q343.1094,1472.8906 342.9219,1472.7031 Q342.5938,1472.3281 341.9844,1472.1094 Q341.375,1471.8906 340.75,1471.8906 Q339.9844,1471.8906 339.3516,1472.2188 Q338.7188,1472.5469 338.2266,1473.2969 Q337.7344,1474.0469 337.7344,1475.0781 L337.7344,1476.1719 Q337.7344,1477.4063 338.625,1478.2266 Q339.5156,1479.0469 341.1094,1479.0469 Q342.0469,1479.0469 342.7031,1478.7969 Q343.0938,1478.6406 343.5156,1478.2031 Q343.7813,1477.9375 343.9297,1477.8594 Q344.0781,1477.7813 344.2813,1477.7813 Q344.6094,1477.7813 344.8672,1478.0391 Q345.125,1478.2969 345.125,1478.6406 Q345.125,1478.9844 344.7813,1479.3906 Q344.2813,1479.9688 343.4844,1480.2969 Q342.4063,1480.75 341.1094,1480.75 Q339.5938,1480.75 338.3906,1480.125 Q337.4063,1479.625 336.7188,1478.5547 Q336.0313,1477.4844 336.0313,1476.2031 L336.0313,1475.0469 Q336.0313,1473.7188 336.6484,1472.5703 Q337.2656,1471.4219 338.3594,1470.8047 Q339.4531,1470.1875 340.6875,1470.1875 Q341.4219,1470.1875 342.0703,1470.3516 Q342.7188,1470.5156 343.2656,1470.875 Z " fill="#000000"/><text fill="#000000" font-family="sans-serif" font-size="14" lengthAdjust="spacing" textLength="116" x="354.5" y="1480.7285">DefenseDecorator</text><line style="stroke:#181818;stroke-width:0.5;" x1="326.5" x2="472.5" y1="1491" y2="1491"/><line style="stroke:#181818;stroke-width:0.5;" x1="326.5" x2="472.5" y1="1499" y2="1499"/><ellipse cx="336.5" cy="1513.3047" fill="#84BE84" rx="3" ry="3" style="stroke:#038048;stroke-width:1.0;"/><text fill="#000000" font-family="sans-serif" font-size="14" lengthAdjust="spacing" textLength="109" x="345.5" y="1517.5332">GetDefense(): int</text></g><!--MD5=[7801747110761c073b679ff6ce997d90]
class StandardCard--><g id="elem_StandardCard"><rect codeLine="120" fill="#F1F1F1" height="153.6563" id="StandardCard" rx="2.5" ry="2.5" style="stroke:#181818;stroke-width:0.5;" width="380" x="701.5" y="1415"/><ellipse cx="842.75" cy="1431" fill="#ADD1B2" rx="11" ry="11" style="stroke:#181818;stroke-width:1.0;"/><path d="M845.5156,1426.875 Q845.6719,1426.6563 845.8594,1426.5469 Q846.0469,1426.4375 846.2656,1426.4375 Q846.6406,1426.4375 846.875,1426.6953 Q847.1094,1426.9531 847.1094,1427.5625 L847.1094,1429.0156 Q847.1094,1429.625 846.875,1429.8906 Q846.6406,1430.1563 846.2656,1430.1563 Q845.9219,1430.1563 845.7188,1429.9531 Q845.5156,1429.7656 845.4063,1429.25 Q845.3594,1428.8906 845.1719,1428.7031 Q844.8438,1428.3281 844.2344,1428.1094 Q843.625,1427.8906 843,1427.8906 Q842.2344,1427.8906 841.6016,1428.2188 Q840.9688,1428.5469 840.4766,1429.2969 Q839.9844,1430.0469 839.9844,1431.0781 L839.9844,1432.1719 Q839.9844,1433.4063 840.875,1434.2266 Q841.7656,1435.0469 843.3594,1435.0469 Q844.2969,1435.0469 844.9531,1434.7969 Q845.3438,1434.6406 845.7656,1434.2031 Q846.0313,1433.9375 846.1797,1433.8594 Q846.3281,1433.7813 846.5313,1433.7813 Q846.8594,1433.7813 847.1172,1434.0391 Q847.375,1434.2969 847.375,1434.6406 Q847.375,1434.9844 847.0313,1435.3906 Q846.5313,1435.9688 845.7344,1436.2969 Q844.6563,1436.75 843.3594,1436.75 Q841.8438,1436.75 840.6406,1436.125 Q839.6563,1435.625 838.9688,1434.5547 Q838.2813,1433.4844 838.2813,1432.2031 L838.2813,1431.0469 Q838.2813,1429.7188 838.8984,1428.5703 Q839.5156,1427.4219 840.6094,1426.8047 Q841.7031,1426.1875 842.9375,1426.1875 Q843.6719,1426.1875 844.3203,1426.3516 Q844.9688,1426.5156 845.5156,1426.875 Z " fill="#000000"/><text fill="#000000" font-family="sans-serif" font-size="14" lengthAdjust="spacing" textLength="89" x="863.25" y="1436.7285">StandardCard</text><line style="stroke:#181818;stroke-width:0.5;" x1="702.5" x2="1080.5" y1="1447" y2="1447"/><ellipse cx="712.5" cy="1461.3047" fill="none" rx="3" ry="3" style="stroke:#038048;stroke-width:1.0;"/><text fill="#000000" font-family="sans-serif" font-size="14" lengthAdjust="spacing" textLength="46" x="721.5" y="1465.5332">Id: guid</text><ellipse cx="712.5" cy="1478.9141" fill="none" rx="3" ry="3" style="stroke:#038048;stroke-width:1.0;"/><text fill="#000000" font-family="sans-serif" font-size="14" lengthAdjust="spacing" textLength="79" x="721.5" y="1483.1426">Name: string</text><line style="stroke:#181818;stroke-width:0.5;" x1="702.5" x2="1080.5" y1="1490.2188" y2="1490.2188"/><ellipse cx="712.5" cy="1504.5234" fill="#84BE84" rx="3" ry="3" style="stroke:#038048;stroke-width:1.0;"/><text fill="#000000" font-family="sans-serif" font-size="14" lengthAdjust="spacing" textLength="354" x="721.5" y="1508.752">StandardCard(double: UseCost, double: AttackDamage)</text><ellipse cx="712.5" cy="1522.1328" fill="#84BE84" rx="3" ry="3" style="stroke:#038048;stroke-width:1.0;"/><text fill="#000000" font-family="sans-serif" font-size="14" lengthAdjust="spacing" textLength="109" x="721.5" y="1526.3613">GetUseCost(): int</text><ellipse cx="712.5" cy="1539.7422" fill="#84BE84" rx="3" ry="3" style="stroke:#038048;stroke-width:1.0;"/><text fill="#000000" font-family="sans-serif" font-size="14" lengthAdjust="spacing" textLength="119" x="721.5" y="1543.9707">GetUseAttack(): int</text><ellipse cx="712.5" cy="1557.3516" fill="#84BE84" rx="3" ry="3" style="stroke:#038048;stroke-width:1.0;"/><text fill="#000000" font-family="sans-serif" font-size="14" lengthAdjust="spacing" textLength="109" x="721.5" y="1561.5801">GetDefense(): int</text></g><!--MD5=[cdc67777e28cc24b855dc5439bb891da]
class DeckCreator--><g id="elem_DeckCreator"><rect codeLine="129" fill="#F1F1F1" height="100.8281" id="DeckCreator" rx="2.5" ry="2.5" style="stroke:#181818;stroke-width:0.5;" width="279" x="335" y="273.5"/><ellipse cx="430.25" cy="289.5" fill="#ADD1B2" rx="11" ry="11" style="stroke:#181818;stroke-width:1.0;"/><path d="M433.0156,285.375 Q433.1719,285.1563 433.3594,285.0469 Q433.5469,284.9375 433.7656,284.9375 Q434.1406,284.9375 434.375,285.1953 Q434.6094,285.4531 434.6094,286.0625 L434.6094,287.5156 Q434.6094,288.125 434.375,288.3906 Q434.1406,288.6563 433.7656,288.6563 Q433.4219,288.6563 433.2188,288.4531 Q433.0156,288.2656 432.9063,287.75 Q432.8594,287.3906 432.6719,287.2031 Q432.3438,286.8281 431.7344,286.6094 Q431.125,286.3906 430.5,286.3906 Q429.7344,286.3906 429.1016,286.7188 Q428.4688,287.0469 427.9766,287.7969 Q427.4844,288.5469 427.4844,289.5781 L427.4844,290.6719 Q427.4844,291.9063 428.375,292.7266 Q429.2656,293.5469 430.8594,293.5469 Q431.7969,293.5469 432.4531,293.2969 Q432.8438,293.1406 433.2656,292.7031 Q433.5313,292.4375 433.6797,292.3594 Q433.8281,292.2813 434.0313,292.2813 Q434.3594,292.2813 434.6172,292.5391 Q434.875,292.7969 434.875,293.1406 Q434.875,293.4844 434.5313,293.8906 Q434.0313,294.4688 433.2344,294.7969 Q432.1563,295.25 430.8594,295.25 Q429.3438,295.25 428.1406,294.625 Q427.1563,294.125 426.4688,293.0547 Q425.7813,291.9844 425.7813,290.7031 L425.7813,289.5469 Q425.7813,288.2188 426.3984,287.0703 Q427.0156,285.9219 428.1094,285.3047 Q429.2031,284.6875 430.4375,284.6875 Q431.1719,284.6875 431.8203,284.8516 Q432.4688,285.0156 433.0156,285.375 Z " fill="#000000"/><text fill="#000000" font-family="sans-serif" font-size="14" lengthAdjust="spacing" textLength="80" x="450.75" y="295.2285">DeckCreator</text><line style="stroke:#181818;stroke-width:0.5;" x1="336" x2="613" y1="305.5" y2="305.5"/><line style="stroke:#181818;stroke-width:0.5;" x1="336" x2="613" y1="313.5" y2="313.5"/><ellipse cx="346" cy="327.8047" fill="#84BE84" rx="3" ry="3" style="stroke:#038048;stroke-width:1.0;"/><text fill="#000000" font-family="sans-serif" font-size="14" lengthAdjust="spacing" textLength="190" x="355" y="332.0332">AddStack(String Name): Stack</text><ellipse cx="346" cy="345.4141" fill="#84BE84" rx="3" ry="3" style="stroke:#038048;stroke-width:1.0;"/><text fill="#000000" font-family="sans-serif" font-size="14" lengthAdjust="spacing" textLength="243" x="355" y="349.6426">AddSortableStack(String Name): Stack</text><ellipse cx="346" cy="363.0234" fill="#84BE84" rx="3" ry="3" style="stroke:#038048;stroke-width:1.0;"/><text fill="#000000" font-family="sans-serif" font-size="14" lengthAdjust="spacing" textLength="253" x="355" y="367.252">AddShufflableStack(String Name): Stack</text></g><!--MD5=[9bd8fc5db6b49583ba34795df2b07911]
reverse link Display to ConsoleDisplay--><g id="link_Display_ConsoleDisplay"><path d="M1263.85,385.74 C1314.35,418.59 1375.34,458.28 1420.06,487.37 " fill="none" id="Display-backto-ConsoleDisplay" style="stroke:#181818;stroke-width:1.0;"/><polygon fill="none" points="1259.77,391.43,1246.82,374.66,1267.41,379.7,1259.77,391.43" style="stroke:#181818;stroke-width:1.0;"/></g><!--MD5=[0fde69ea6b7b8745cb6ccce9574025a1]
reverse link Game to StandardGame--><g id="link_Game_StandardGame"><path d="M1048.29,124.33 C1139.31,151.64 1268.31,196.43 1371.5,256 C1384.3,263.39 1397.11,272.81 1408.64,282.24 " fill="none" id="Game-backto-StandardGame" style="stroke:#181818;stroke-width:1.0;"/><polygon fill="none" points="1046.09,130.98,1028.9,118.6,1050.06,117.55,1046.09,130.98" style="stroke:#181818;stroke-width:1.0;"/></g><!--MD5=[14410cb4be63fedf9bef9a3c9d80389b]
reverse link CardDecorator to AttackDecorator--><g id="link_CardDecorator_AttackDecorator"><path d="M355.85,1336.95 C383.58,1351.97 392.22,1354.89 413.5,1367 C448.55,1386.95 457.36,1392.03 490.5,1415 C510.27,1428.7 531.51,1444.81 549.22,1458.66 " fill="none" id="CardDecorator-backto-AttackDecorator" style="stroke:#181818;stroke-width:1.0;"/><polygon fill="none" points="352.39,1343.04,338.28,1327.23,359.17,1330.79,352.39,1343.04" style="stroke:#181818;stroke-width:1.0;"/></g><!--MD5=[633d5d21de74dcd81c49de54d32559d5]
reverse link CardDecorator to CostDecorator--><g id="link_CardDecorator_CostDecorator"><path d="M189.34,1357.26 C194.2,1395.12 199.07,1433.11 202.38,1458.88 " fill="none" id="CardDecorator-backto-CostDecorator" style="stroke:#181818;stroke-width:1.0;"/><polygon fill="none" points="182.37,1357.96,186.77,1337.23,196.26,1356.18,182.37,1357.96" style="stroke:#181818;stroke-width:1.0;"/></g><!--MD5=[083ddfd52d5cdb56778592ffd0e515df]
reverse link CardDecorator to DefenseDecorator--><g id="link_CardDecorator_DefenseDecorator"><path d="M276.97,1352.73 C286.23,1363.69 295.5,1374.57 304.5,1385 C326.13,1410.07 351.14,1437.94 370.07,1458.81 " fill="none" id="CardDecorator-backto-DefenseDecorator" style="stroke:#181818;stroke-width:1.0;"/><polygon fill="none" points="271.45,1357.03,263.93,1337.22,282.16,1348.02,271.45,1357.03" style="stroke:#181818;stroke-width:1.0;"/></g><!--MD5=[ba785f1be731f9899c80625db5161152]
reverse link Main to StandardGame--><g id="link_Main_StandardGame"><path codeLine="135" d="M1528.84,146.03 C1511.01,187.36 1486.52,244.14 1470.13,282.13 " fill="none" id="Main-backto-StandardGame" style="stroke:#181818;stroke-width:1.0;"/><polygon fill="none" points="1534.03,134,1527.9831,137.9287,1529.2839,145.0215,1535.3308,141.0928,1534.03,134" style="stroke:#181818;stroke-width:1.0;"/><text fill="#000000" font-family="sans-serif" font-size="13" lengthAdjust="spacing" textLength="45" x="1502.5" y="222.4951">Creates</text></g><!--MD5=[c4298a9f0e1ed7c3df9f07693f5b5c78]
reverse link Main to ConsoleDisplay--><g id="link_Main_ConsoleDisplay"><path codeLine="136" d="M1554.33,147.15 C1555.21,166.35 1556.07,188.13 1556.5,208 C1558.3,290.34 1554.76,312.17 1534.5,392 C1526.14,424.95 1512.21,460.82 1500.87,487.44 " fill="none" id="Main-backto-ConsoleDisplay" style="stroke:#181818;stroke-width:1.0;"/><polygon fill="none" points="1553.7,134.02,1549.9948,140.2064,1554.2802,146.006,1557.9854,139.8196,1553.7,134.02" style="stroke:#181818;stroke-width:1.0;"/><text fill="#000000" font-family="sans-serif" font-size="13" lengthAdjust="spacing" textLength="45" x="1557.5" y="329.4951">Creates</text></g><!--MD5=[9252fefbc3a9fa3a8afa4a753ba31cd6]
reverse link ConsoleDisplay to Console--><g id="link_ConsoleDisplay_Console"><path codeLine="139" d="M1482.5,584.07 C1482.5,608.84 1482.5,638.63 1482.5,665.63 " fill="none" id="ConsoleDisplay-backto-Console" style="stroke:#181818;stroke-width:1.0;"/><polygon fill="#181818" points="1482.5,570.88,1478.5,576.88,1482.5,582.88,1486.5,576.88,1482.5,570.88" style="stroke:#181818;stroke-width:1.0;"/></g><!--MD5=[4a87da21cd5705cd617207f3b5ce70d6]
reverse link Game to Display--><g id="link_Game_Display"><path codeLine="140" d="M1031.41,187.74 C1061.54,217.04 1093.56,248.18 1119.28,273.19 " fill="none" id="Game-backto-Display" style="stroke:#181818;stroke-width:1.0;"/><polygon fill="#181818" points="1021.71,178.31,1023.2175,185.3618,1030.3066,186.6825,1028.7991,179.6307,1021.71,178.31" style="stroke:#181818;stroke-width:1.0;"/></g><!--MD5=[bbc6ee62d3d47812e486fb9dc1de45ab]
reverse link Game to Player--><g id="link_Game_Player"><path codeLine="141" d="M849.45,188.35 C844.27,194.9 839.24,201.49 834.5,208 C823.61,222.97 812.83,239.73 803.14,255.73 " fill="none" id="Game-backto-Player" style="stroke:#181818;stroke-width:1.0;"/><polygon fill="#181818" points="857.71,178.1,850.8313,180.264,850.1832,187.4459,857.0619,185.2819,857.71,178.1" style="stroke:#181818;stroke-width:1.0;"/><polygon fill="#000000" points="836.6679,221.2964,844.2132,215.5068,839.3692,212.1775,836.6679,221.2964" style="stroke:#000000;stroke-width:1.0;"/><text fill="#000000" font-family="sans-serif" font-size="13" lengthAdjust="spacing" textLength="59" x="848.5" y="222.4951">Has many</text><text fill="#000000" font-family="sans-serif" font-size="13" lengthAdjust="spacing" textLength="7" x="843.8101" y="199.6426">1</text><text fill="#000000" font-family="sans-serif" font-size="13" lengthAdjust="spacing" textLength="32" x="773.3716" y="245.3755">many</text></g><!--MD5=[51804acbe0d60fa6af6480eaa7bac204]
reverse link Player to Deck--><g id="link_Player_Deck"><path codeLine="143" d="M748.96,404.96 C744.47,426.63 739.7,449.68 735.52,469.89 " fill="none" id="Player-backto-Deck" style="stroke:#181818;stroke-width:1.0;"/><polygon fill="#181818" points="751.63,392.03,746.4992,397.097,749.2031,403.782,754.3339,398.715,751.63,392.03" style="stroke:#181818;stroke-width:1.0;"/><polygon fill="#000000" points="748.4865,436.072,753.1978,427.8104,747.442,426.619,748.4865,436.072" style="stroke:#000000;stroke-width:1.0;"/><text fill="#000000" font-family="sans-serif" font-size="13" lengthAdjust="spacing" textLength="34" x="758.5" y="436.4951">Has a</text><text fill="#000000" font-family="sans-serif" font-size="13" lengthAdjust="spacing" textLength="7" x="742.8387" y="413.3814">1</text><text fill="#000000" font-family="sans-serif" font-size="13" lengthAdjust="spacing" textLength="7" x="729.5584" y="459.2008">1</text></g><!--MD5=[17c619b254d4bb8971e3f75329fad94a]
reverse link Game to CardFactory--><g id="link_Game_CardFactory"><path codeLine="144" d="M934.5,191.47 C934.5,232.16 934.5,279.86 934.5,323 C934.5,323 934.5,323 934.5,976 C934.5,1041.86 891.91,1092.45 837.42,1130.24 " fill="none" id="Game-backto-CardFactory" style="stroke:#181818;stroke-width:1.0;"/><polygon fill="none" points="934.5,178.24,930.5,184.24,934.5,190.24,938.5,184.24,934.5,178.24" style="stroke:#181818;stroke-width:1.0;"/></g><!--MD5=[36a9a1f09c221a870d0a51e1e350e1d8]
reverse link Game to DeckCreator--><g id="link_Game_DeckCreator"><path codeLine="145" d="M828.23,146.52 C751.55,184.78 648.75,236.06 573.74,273.49 " fill="none" id="Game-backto-DeckCreator" style="stroke:#181818;stroke-width:1.0;"/><polygon fill="#181818" points="840.3,140.5,833.1455,139.5985,829.5616,145.856,836.7161,146.7575,840.3,140.5" style="stroke:#181818;stroke-width:1.0;"/></g><!--MD5=[5ed1d8bf2236044d50336546862f54d3]
reverse link DeckCreator to Stack--><g id="link_DeckCreator_Stack"><path codeLine="147" d="M496,387.27 C521.68,461.62 564.61,585.94 592.23,665.92 " fill="none" id="DeckCreator-backto-Stack" style="stroke:#181818;stroke-width:1.0;"/><polygon fill="#181818" points="491.73,374.89,489.9077,381.8671,495.6472,386.2327,497.4695,379.2556,491.73,374.89" style="stroke:#181818;stroke-width:1.0;"/></g><!--MD5=[5d91ebddc6e213f9d0003ffde0595f4a]
reverse link DeckCreator to SortableStack--><g id="link_DeckCreator_SortableStack"><path codeLine="148" d="M459.04,387.42 C456.39,398.89 453.76,410.78 451.5,422 C447.22,443.2 446.66,448.6 443.5,470 C417.22,647.83 391.6,861.85 382.23,941.81 " fill="none" id="DeckCreator-backto-SortableStack" style="stroke:#181818;stroke-width:1.0;"/><polygon fill="#181818" points="462.03,374.7,456.7646,379.627,459.2874,386.3824,464.5528,381.4554,462.03,374.7" style="stroke:#181818;stroke-width:1.0;"/></g><!--MD5=[0b49618e3447402fd5c86c2e72f17400]
reverse link DeckCreator to ShuffleableStack--><g id="link_DeckCreator_ShuffleableStack"><path codeLine="149" d="M464.91,387.89 C452.51,483.07 436.72,668.65 474.5,820 C485.83,865.4 513.36,912.1 533.4,941.98 " fill="none" id="DeckCreator-backto-ShuffleableStack" style="stroke:#181818;stroke-width:1.0;"/><polygon fill="#181818" points="466.66,374.79,461.8978,380.2049,465.0645,386.6835,469.8268,381.2686,466.66,374.79" style="stroke:#181818;stroke-width:1.0;"/></g><!--MD5=[db03caf44f21973530a07cdd5e81b24f]
reverse link DeckCreator to Deck--><g id="link_DeckCreator_Deck"><path codeLine="150" d="M545.56,382.94 C578.98,410.18 618.73,442.59 652.18,469.85 " fill="none" id="DeckCreator-backto-Deck" style="stroke:#181818;stroke-width:1.0;"/><polygon fill="#181818" points="535.41,374.66,537.5315,381.552,544.7092,382.2445,542.5878,375.3525,535.41,374.66" style="stroke:#181818;stroke-width:1.0;"/></g><!--MD5=[44f1b58bf0cfaa61a9cd3def39bfcd81]
reverse link Deck to Stack--><g id="link_Deck_Stack"><path codeLine="152" d="M688.84,599.98 C678.42,621.02 666.94,644.2 656.32,665.63 " fill="none" id="Deck-backto-Stack" style="stroke:#181818;stroke-width:1.0;"/><polygon fill="none" points="694.67,588.21,688.4231,591.8123,689.3457,598.9641,695.5925,595.3618,694.67,588.21" style="stroke:#181818;stroke-width:1.0;"/><polygon fill="#000000" points="679.2806,631.6562,685.9291,624.8556,680.662,622.2465,679.2806,631.6562" style="stroke:#000000;stroke-width:1.0;"/><text fill="#000000" font-family="sans-serif" font-size="13" lengthAdjust="spacing" textLength="87" x="690.5" y="632.4951">Contains many</text><text fill="#000000" font-family="sans-serif" font-size="13" lengthAdjust="spacing" textLength="7" x="683.7298" y="609.8911">1</text><text fill="#000000" font-family="sans-serif" font-size="13" lengthAdjust="spacing" textLength="32" x="626.3997" y="655.0214">Many</text></g><!--MD5=[75a26a53e24d4d9822ced1cf8ddc7adf]
reverse link Deck to ICard--><g id="link_Deck_ICard"><path codeLine="153" d="M778.89,600.18 C781.87,606.01 784.47,611.98 786.5,618 C817.72,710.43 805.53,824.13 791.57,897.78 " fill="none" id="Deck-backto-ICard" style="stroke:#181818;stroke-width:1.0;"/><polygon fill="#181818" points="772.31,588.46,771.7579,595.6499,778.1825,598.9249,778.7345,591.735,772.31,588.46" style="stroke:#181818;stroke-width:1.0;"/><polygon fill="#000000" points="810.7128,748.1712,813.2641,739.0093,807.3915,739.2595,810.7128,748.1712" style="stroke:#000000;stroke-width:1.0;"/><text fill="#000000" font-family="sans-serif" font-size="13" lengthAdjust="spacing" textLength="51" x="819.5" y="748.4951">Contains</text><text fill="#000000" font-family="sans-serif" font-size="13" lengthAdjust="spacing" textLength="7" x="770.549" y="609.7502">1</text><text fill="#000000" font-family="sans-serif" font-size="13" lengthAdjust="spacing" textLength="32" x="759.7673" y="887.1857">Many</text></g><!--MD5=[384beab849a800511c79238d0ed3a030]
reverse link Stack to ICard--><g id="link_Stack_ICard"><path codeLine="154" d="M629.47,833 C633.15,845.28 638.03,857.32 644.5,868 C658.62,891.3 679.77,911.78 700.87,928.37 " fill="none" id="Stack-backto-ICard" style="stroke:#181818;stroke-width:1.0;"/><polygon fill="#181818" points="626.06,820.17,623.7362,826.9964,629.1437,831.767,631.4675,824.9406,626.06,820.17" style="stroke:#181818;stroke-width:1.0;"/><polygon fill="#000000" points="652.4966,863.1783,649.4284,854.1763,644.7231,857.699,652.4966,863.1783" style="stroke:#000000;stroke-width:1.0;"/><text fill="#000000" font-family="sans-serif" font-size="13" lengthAdjust="spacing" textLength="130" x="658.5" y="864.4951">Contains references to</text><text fill="#000000" font-family="sans-serif" font-size="13" lengthAdjust="spacing" textLength="7" x="619.4216" y="841.2815">1</text><text fill="#000000" font-family="sans-serif" font-size="13" lengthAdjust="spacing" textLength="32" x="660.9764" y="921.0306">Many</text></g><!--MD5=[25d64746aa11e833ed62d15dc4d393c9]
reverse link Stack to SortableStack--><g id="link_Stack_SortableStack"><path codeLine="155" d="M529.46,829.33 C488.52,868.56 442.43,912.73 412.07,941.83 " fill="none" id="Stack-backto-SortableStack" style="stroke:#181818;stroke-width:1.0;"/><polygon fill="#181818" points="538.92,820.27,531.8208,821.5356,530.2586,828.5754,537.3578,827.3098,538.92,820.27" style="stroke:#181818;stroke-width:1.0;"/></g><!--MD5=[18240ab7b58fe463867639f6cdfa6322]
reverse link Stack to ShuffleableStack--><g id="link_Stack_ShuffleableStack"><path codeLine="156" d="M594.14,832.85 C592.57,838.65 591.01,844.41 589.5,850 C581.08,881.19 571.62,916.83 564.99,941.87 " fill="none" id="Stack-backto-ShuffleableStack" style="stroke:#181818;stroke-width:1.0;"/><polygon fill="#181818" points="597.61,820.12,592.1745,824.8587,594.4582,831.6987,599.8936,826.96,597.61,820.12" style="stroke:#181818;stroke-width:1.0;"/></g><!--MD5=[0fa77556ecbd224721b7f878050b4730]
reverse link ICard to StandardCard--><g id="link_ICard_StandardCard"><path codeLine="158" d="M838.78,1070.13 C846.15,1084.02 852.71,1098.54 857.5,1113 C890.8,1213.55 895.69,1336.86 894.71,1414.71 " fill="none" id="ICard-backto-StandardCard" style="stroke:#181818;stroke-width:1.0;stroke-dasharray:7.0,7.0;"/><polygon fill="none" points="832.44,1073.13,828.72,1052.27,844.63,1066.26,832.44,1073.13" style="stroke:#181818;stroke-width:1.0;"/></g><!--MD5=[b6ab8ed60184325b293c5806a453964a]
reverse link ICard to CardDecorator--><g id="link_ICard_CardDecorator"><path codeLine="159" d="M683.03,1033.76 C670.08,1040.58 656.68,1046.91 643.5,1052 C521.46,1099.18 477.15,1064.84 355.5,1113 C349.71,1115.29 343.9,1117.76 338.09,1120.37 " fill="none" id="ICard-backto-CardDecorator" style="stroke:#181818;stroke-width:1.0;stroke-dasharray:7.0,7.0;"/><polygon fill="none" points="680.07,1027.4,700.97,1023.88,686.83,1039.66,680.07,1027.4" style="stroke:#181818;stroke-width:1.0;"/></g><!--MD5=[a546fe94e521e1fdad96127ea64a209d]
reverse link CardFactory to StandardCard--><g id="link_CardFactory_StandardCard"><path codeLine="160" d="M717.27,1329 C747.99,1357.56 780.78,1388.05 809.54,1414.79 " fill="none" id="CardFactory-backto-StandardCard" style="stroke:#181818;stroke-width:1.0;"/><polygon fill="#181818" points="707.38,1319.8,709.0513,1326.8147,716.1693,1327.97,714.498,1320.9552,707.38,1319.8" style="stroke:#181818;stroke-width:1.0;"/><polygon fill="#000000" points="783.1618,1379.5804,778.5387,1371.2691,774.5364,1375.5737,783.1618,1379.5804" style="stroke:#000000;stroke-width:1.0;"/><text fill="#000000" font-family="sans-serif" font-size="13" lengthAdjust="spacing" textLength="45" x="788.5" y="1381.4951">Creates</text></g><!--MD5=[b56350baa64ce9a4575caf2ccefd2806]
reverse link CardFactory to AttackDecorator--><g id="link_CardFactory_AttackDecorator"><path codeLine="161" d="M599.63,1333.05 C596.73,1378.25 593.57,1427.56 591.56,1458.85 " fill="none" id="CardFactory-backto-AttackDecorator" style="stroke:#181818;stroke-width:1.0;"/><polygon fill="#181818" points="600.48,1319.8,596.0994,1325.528,599.7019,1331.7747,604.0825,1326.0467,600.48,1319.8" style="stroke:#181818;stroke-width:1.0;"/><polygon fill="#000000" points="601.1799,1381.1655,604.6919,1372.3271,598.8261,1371.9508,601.1799,1381.1655" style="stroke:#000000;stroke-width:1.0;"/><text fill="#000000" font-family="sans-serif" font-size="13" lengthAdjust="spacing" textLength="45" x="610.5" y="1381.4951">Creates</text></g><!--MD5=[ccb9356a1c095a340b1ae652b40d9282]
reverse link CardFactory to CostDecorator--><g id="link_CardFactory_CostDecorator"><path codeLine="162" d="M442.06,1326.58 C397.89,1354.51 350.47,1385.32 307.5,1415 C287.46,1428.84 265.81,1444.97 247.71,1458.8 " fill="none" id="CardFactory-backto-CostDecorator" style="stroke:#181818;stroke-width:1.0;"/><polygon fill="#181818" points="453.21,1319.55,446.0011,1319.3699,443.0623,1325.9549,450.2711,1326.1351,453.21,1319.55" style="stroke:#181818;stroke-width:1.0;"/><polygon fill="#000000" points="373.366,1378.9882,382.4976,1376.3304,379.1914,1371.4705,373.366,1378.9882" style="stroke:#000000;stroke-width:1.0;"/><text fill="#000000" font-family="sans-serif" font-size="13" lengthAdjust="spacing" textLength="45" x="386.5" y="1381.4951">Creates</text></g><!--MD5=[4a751d32d6b3a4ec278a9cffac85d53d]
reverse link CardFactory to DefenseDecorator--><g id="link_CardFactory_DefenseDecorator"><path codeLine="163" d="M525.15,1330.14 C489.23,1376.13 449.58,1426.89 424.61,1458.85 " fill="none" id="CardFactory-backto-DefenseDecorator" style="stroke:#181818;stroke-width:1.0;"/><polygon fill="#181818" points="533.23,1319.8,526.3843,1322.0665,525.8436,1329.2573,532.6892,1326.9908,533.23,1319.8" style="stroke:#181818;stroke-width:1.0;"/><polygon fill="#000000" points="493.4221,1380.1161,501.3062,1374.7971,496.674,1371.1788,493.4221,1380.1161" style="stroke:#000000;stroke-width:1.0;"/><text fill="#000000" font-family="sans-serif" font-size="13" lengthAdjust="spacing" textLength="45" x="505.5" y="1381.4951">Creates</text></g><!--MD5=[06a8ad3e931343fab956d5ce628b5cbb]
@startuml

class Main {
    + Main(): void
    + SelectRunMode()
}

class Console {
    + WriteLine(string value)
    + Write(string value)
    + ReadLine(): string
    + Clear()
    {static} +ForegroundColor: ConsoleColor
    {static} +BackgroundColor: ConsoleColor
}

class ConsoleDisplay extends Display {
    + DisplayPlayer(Player: player)
    + GetCardChoice(List<ICards>: choices): ICard
}

abstract Display {
    + Display(Game game)
    + abstract DisplayPlayer(Player: player)
    + abstract GetCardChoice(List<ICards>: choices): ICard
}


class StandardGame extends Game{
    + GameLoop()
    + PlayerChoice()
}

abstract Game {
    - abstract PlayerLimmit: int
    - Players: List<Player>
    + Game(Display: display)
    + AddPlayer(Player: player)
    + StartGame()
    + abstract GameLoop()
    + abstract PlayerChoice()
}

class Player {
    + name: string
    + deck: Deck
    + Player(name: string, deck: Deck)
    + Name: string
    + Deck: Deck
}

class Deck {
    + allCards: List<Card>
    + Stacks: List<Stack>
    + GetStack(string stackName): stack
    + AddStack(string Name)
}

class Stack {
    + stackCards: List<Card>
    + StackSize: int
    + StackName: string
    + AddCard(Card: card)
    + AddCard(IEnumarble<Card>: cards)
    + GetNextCard(): Card
}

class SortableStack {
    + Sort()
}

class ShuffleableStack {
    + Shuffle()
}

class CardFactory
{
    - ConstuctedCard: Card
    + NewCard()
    + AddAttackDecorator(double: offset, Action: condition (Optional))
    + AddAttackDecorator(double: multiplyer, Action: condition (Optional))
    + AddDefenseDecorator(double: offset, Action: condition (Optional))
    + AddDefenseDecorator(double: multiplyer, Action: condition (Optional))
    + AddTrapAbilityDecorator(Action: Condition, Action: TrapAction)
    + GetConstructedCard(): Card
}

interface ICard {
    + Id: guid
    + Name: string
    + Description: string
    + GetUseCost(): int
    + GetUseAttack(): int
    + GetDefense(): int
}

abstract CardDecorator {
    + Id: guid
    + Name: string
    + DecorationName: String
    + Multaplyer: double
    + Offset: double
    + Condition: Action
    + CardDecorator(double multiplyer, double: offset)
    + AddCondition(Action: Condition)
    + Virtual GetUseCost(): int
    + Virtual GetUseAttack(): int
}

class AttackDecorator extends CardDecorator {
    + GetUseAttack(): int
}

class CostDecorator extends CardDecorator {
    + GetUseCost(): int
}

class DefenseDecorator extends CardDecorator {
    + GetDefense(): int
}
class StandardCard {
    + Id: guid
    + Name: string
    + StandardCard(double: UseCost, double: AttackDamage)
    + GetUseCost(): int
    + GetUseAttack(): int
    + GetDefense(): int
}

Class DeckCreator {
    + AddStack(String Name): Stack
    + AddSortableStack(String Name): Stack
    + AddShufflableStack(String Name): Stack
}

Main o- - StandardGame: Creates
Main o- - ConsoleDisplay: Creates


ConsoleDisplay *- - Console
Game *- - Display
Game "1" *- - "many" Player : Has many >

Player "1" *- - "1" Deck : Has a >
Game o-down- CardFactory
Game *-down- DeckCreator

DeckCreator *-down- Stack
DeckCreator *-down- SortableStack
DeckCreator *-down- ShuffleableStack
DeckCreator *-down- Deck

Deck "1" o- - "Many" Stack : Contains many >
Deck "1" *- - "Many" ICard : Contains >
Stack "1" *- - "Many" ICard : Contains references to  >
Stack *-down- SortableStack
Stack *-down- ShuffleableStack

StandardCard .up.|> ICard
CardDecorator .up.|> ICard
CardFactory *-down- StandardCard : Creates >
CardFactory *-down- AttackDecorator : Creates >
CardFactory *-down- CostDecorator : Creates >
CardFactory *-down- DefenseDecorator : Creates >

@enduml

PlantUML version 1.2022.7(Mon Aug 22 18:01:30 BST 2022)
(GPL source distribution)
Java Runtime: Java(TM) SE Runtime Environment
JVM: Java HotSpot(TM) 64-Bit Server VM
Default Encoding: Cp1252
Language: en
Country: GB
--></g></svg>