<?xml version="1.0" encoding="UTF-8" standalone="no"?><svg xmlns="http://www.w3.org/2000/svg" xmlns:xlink="http://www.w3.org/1999/xlink" contentStyleType="text/css" height="1093px" preserveAspectRatio="none" style="width:2058px;height:1093px;background:#FFFFFF;" version="1.1" viewBox="0 0 2058 1093" width="2058px" zoomAndPan="magnify"><defs/><g><!--MD5=[84718776d214be480e4c259efcb737fc]
class Main--><g id="elem_Main"><rect codeLine="2" fill="#F1F1F1" height="65.6094" id="Main" rx="2.5" ry="2.5" style="stroke:#181818;stroke-width:0.5;" width="100" x="1803" y="42"/><ellipse cx="1835.1" cy="58" fill="#ADD1B2" rx="11" ry="11" style="stroke:#181818;stroke-width:1.0;"/><path d="M1837.8656,53.875 Q1838.0219,53.6563 1838.2094,53.5469 Q1838.3969,53.4375 1838.6156,53.4375 Q1838.9906,53.4375 1839.225,53.7031 Q1839.4594,53.9531 1839.4594,54.5625 L1839.4594,56.0156 Q1839.4594,56.625 1839.225,56.8906 Q1838.9906,57.1563 1838.6156,57.1563 Q1838.2719,57.1563 1838.0688,56.9531 Q1837.8656,56.7656 1837.7563,56.25 Q1837.7094,55.8906 1837.5219,55.7031 Q1837.1938,55.3281 1836.5844,55.1094 Q1835.975,54.8906 1835.35,54.8906 Q1834.5844,54.8906 1833.9438,55.2188 Q1833.3188,55.5469 1832.8188,56.2969 Q1832.3344,57.0469 1832.3344,58.0781 L1832.3344,59.1719 Q1832.3344,60.4063 1833.225,61.2344 Q1834.1156,62.0469 1835.7094,62.0469 Q1836.6469,62.0469 1837.3031,61.7969 Q1837.6938,61.6406 1838.1156,61.2031 Q1838.3813,60.9375 1838.5219,60.8594 Q1838.6781,60.7813 1838.8813,60.7813 Q1839.2094,60.7813 1839.4594,61.0469 Q1839.725,61.2969 1839.725,61.6406 Q1839.725,61.9844 1839.3813,62.3906 Q1838.8813,62.9688 1838.0844,63.2969 Q1837.0063,63.75 1835.7094,63.75 Q1834.1938,63.75 1832.9906,63.125 Q1832.0063,62.625 1831.3188,61.5625 Q1830.6313,60.4844 1830.6313,59.2031 L1830.6313,58.0469 Q1830.6313,56.7188 1831.2406,55.5781 Q1831.8656,54.4219 1832.9594,53.8125 Q1834.0531,53.1875 1835.2875,53.1875 Q1836.0219,53.1875 1836.6625,53.3594 Q1837.3188,53.5156 1837.8656,53.875 Z " fill="#000000"/><text fill="#000000" font-family="sans-serif" font-size="14" lengthAdjust="spacing" textLength="30" x="1852.9" y="63.7285">Main</text><line style="stroke:#181818;stroke-width:0.5;" x1="1804" x2="1902" y1="74" y2="74"/><line style="stroke:#181818;stroke-width:0.5;" x1="1804" x2="1902" y1="82" y2="82"/><ellipse cx="1814" cy="96.3047" fill="#84BE84" rx="3" ry="3" style="stroke:#038048;stroke-width:1.0;"/><text fill="#000000" font-family="sans-serif" font-size="14" lengthAdjust="spacing" textLength="74" x="1823" y="100.5332">Main(): void</text></g><!--MD5=[315b61b427ec618d6861d47eee00cca3]
class Console--><g id="elem_Console"><rect codeLine="6" fill="#F1F1F1" height="153.6563" id="Console" rx="2.5" ry="2.5" style="stroke:#181818;stroke-width:0.5;" width="230" x="1616" y="666"/><ellipse cx="1700.75" cy="682" fill="#ADD1B2" rx="11" ry="11" style="stroke:#181818;stroke-width:1.0;"/><path d="M1703.5156,677.875 Q1703.6719,677.6563 1703.8594,677.5469 Q1704.0469,677.4375 1704.2656,677.4375 Q1704.6406,677.4375 1704.875,677.7031 Q1705.1094,677.9531 1705.1094,678.5625 L1705.1094,680.0156 Q1705.1094,680.625 1704.875,680.8906 Q1704.6406,681.1563 1704.2656,681.1563 Q1703.9219,681.1563 1703.7188,680.9531 Q1703.5156,680.7656 1703.4063,680.25 Q1703.3594,679.8906 1703.1719,679.7031 Q1702.8438,679.3281 1702.2344,679.1094 Q1701.625,678.8906 1701,678.8906 Q1700.2344,678.8906 1699.5938,679.2188 Q1698.9688,679.5469 1698.4688,680.2969 Q1697.9844,681.0469 1697.9844,682.0781 L1697.9844,683.1719 Q1697.9844,684.4063 1698.875,685.2344 Q1699.7656,686.0469 1701.3594,686.0469 Q1702.2969,686.0469 1702.9531,685.7969 Q1703.3438,685.6406 1703.7656,685.2031 Q1704.0313,684.9375 1704.1719,684.8594 Q1704.3281,684.7813 1704.5313,684.7813 Q1704.8594,684.7813 1705.1094,685.0469 Q1705.375,685.2969 1705.375,685.6406 Q1705.375,685.9844 1705.0313,686.3906 Q1704.5313,686.9688 1703.7344,687.2969 Q1702.6563,687.75 1701.3594,687.75 Q1699.8438,687.75 1698.6406,687.125 Q1697.6563,686.625 1696.9688,685.5625 Q1696.2813,684.4844 1696.2813,683.2031 L1696.2813,682.0469 Q1696.2813,680.7188 1696.8906,679.5781 Q1697.5156,678.4219 1698.6094,677.8125 Q1699.7031,677.1875 1700.9375,677.1875 Q1701.6719,677.1875 1702.3125,677.3594 Q1702.9688,677.5156 1703.5156,677.875 Z " fill="#000000"/><text fill="#000000" font-family="sans-serif" font-size="14" lengthAdjust="spacing" textLength="52" x="1721.25" y="687.7285">Console</text><line style="stroke:#181818;stroke-width:0.5;" x1="1617" x2="1845" y1="698" y2="698"/><ellipse cx="1627" cy="712.3047" fill="none" rx="3" ry="3" style="stroke:#038048;stroke-width:1.0;"/><text fill="#000000" font-family="sans-serif" font-size="14" lengthAdjust="spacing" text-decoration="underline" textLength="203" x="1636" y="716.5332">ForegroundColor: ConsoleColor</text><ellipse cx="1627" cy="729.9141" fill="none" rx="3" ry="3" style="stroke:#038048;stroke-width:1.0;"/><text fill="#000000" font-family="sans-serif" font-size="14" lengthAdjust="spacing" text-decoration="underline" textLength="204" x="1636" y="734.1426">BackgroundColor: ConsoleColor</text><line style="stroke:#181818;stroke-width:0.5;" x1="1617" x2="1845" y1="741.2188" y2="741.2188"/><ellipse cx="1627" cy="755.5234" fill="#84BE84" rx="3" ry="3" style="stroke:#038048;stroke-width:1.0;"/><text fill="#000000" font-family="sans-serif" font-size="14" lengthAdjust="spacing" textLength="143" x="1636" y="759.752">WriteLine(string value)</text><ellipse cx="1627" cy="773.1328" fill="#84BE84" rx="3" ry="3" style="stroke:#038048;stroke-width:1.0;"/><text fill="#000000" font-family="sans-serif" font-size="14" lengthAdjust="spacing" textLength="116" x="1636" y="777.3613">Write(string value)</text><ellipse cx="1627" cy="790.7422" fill="#84BE84" rx="3" ry="3" style="stroke:#038048;stroke-width:1.0;"/><text fill="#000000" font-family="sans-serif" font-size="14" lengthAdjust="spacing" textLength="114" x="1636" y="794.9707">ReadLine(): string</text><ellipse cx="1627" cy="808.3516" fill="#84BE84" rx="3" ry="3" style="stroke:#038048;stroke-width:1.0;"/><text fill="#000000" font-family="sans-serif" font-size="14" lengthAdjust="spacing" textLength="44" x="1636" y="812.5801">Clear()</text></g><!--MD5=[b666b68b40ceacc7d81d7bc2c59b2151]
class ConsoleDisplay--><g id="elem_ConsoleDisplay"><rect codeLine="15" fill="#F1F1F1" height="48" id="ConsoleDisplay" rx="2.5" ry="2.5" style="stroke:#181818;stroke-width:0.5;" width="130" x="1666" y="470"/><ellipse cx="1681" cy="486" fill="#ADD1B2" rx="11" ry="11" style="stroke:#181818;stroke-width:1.0;"/><path d="M1683.7656,481.875 Q1683.9219,481.6563 1684.1094,481.5469 Q1684.2969,481.4375 1684.5156,481.4375 Q1684.8906,481.4375 1685.125,481.7031 Q1685.3594,481.9531 1685.3594,482.5625 L1685.3594,484.0156 Q1685.3594,484.625 1685.125,484.8906 Q1684.8906,485.1563 1684.5156,485.1563 Q1684.1719,485.1563 1683.9688,484.9531 Q1683.7656,484.7656 1683.6563,484.25 Q1683.6094,483.8906 1683.4219,483.7031 Q1683.0938,483.3281 1682.4844,483.1094 Q1681.875,482.8906 1681.25,482.8906 Q1680.4844,482.8906 1679.8438,483.2188 Q1679.2188,483.5469 1678.7188,484.2969 Q1678.2344,485.0469 1678.2344,486.0781 L1678.2344,487.1719 Q1678.2344,488.4063 1679.125,489.2344 Q1680.0156,490.0469 1681.6094,490.0469 Q1682.5469,490.0469 1683.2031,489.7969 Q1683.5938,489.6406 1684.0156,489.2031 Q1684.2813,488.9375 1684.4219,488.8594 Q1684.5781,488.7813 1684.7813,488.7813 Q1685.1094,488.7813 1685.3594,489.0469 Q1685.625,489.2969 1685.625,489.6406 Q1685.625,489.9844 1685.2813,490.3906 Q1684.7813,490.9688 1683.9844,491.2969 Q1682.9063,491.75 1681.6094,491.75 Q1680.0938,491.75 1678.8906,491.125 Q1677.9063,490.625 1677.2188,489.5625 Q1676.5313,488.4844 1676.5313,487.2031 L1676.5313,486.0469 Q1676.5313,484.7188 1677.1406,483.5781 Q1677.7656,482.4219 1678.8594,481.8125 Q1679.9531,481.1875 1681.1875,481.1875 Q1681.9219,481.1875 1682.5625,481.3594 Q1683.2188,481.5156 1683.7656,481.875 Z " fill="#000000"/><text fill="#000000" font-family="sans-serif" font-size="14" lengthAdjust="spacing" textLength="98" x="1695" y="491.7285">ConsoleDisplay</text><line style="stroke:#181818;stroke-width:0.5;" x1="1667" x2="1795" y1="502" y2="502"/><line style="stroke:#181818;stroke-width:0.5;" x1="1667" x2="1795" y1="510" y2="510"/></g><!--MD5=[292033ffe4750640675b59034298e578]
class Display--><g id="elem_Display"><rect codeLine="19" fill="#F1F1F1" height="100.8281" id="Display" rx="2.5" ry="2.5" style="stroke:#181818;stroke-width:0.5;" width="311" x="1343.5" y="238.5"/><ellipse cx="1471.75" cy="254.5" fill="#A9DCDF" rx="11" ry="11" style="stroke:#181818;stroke-width:1.0;"/><path d="M1473.9375,256.2656 L1469.7969,256.2656 L1469.375,257.2969 L1469.7969,257.2969 Q1470.4063,257.2969 1470.6719,257.5313 Q1470.9375,257.7656 1470.9375,258.1563 Q1470.9375,258.5313 1470.6719,258.7656 Q1470.4063,259 1469.7969,259 L1467.5,259 Q1466.8906,259 1466.6406,258.7656 Q1466.375,258.5313 1466.375,258.1406 Q1466.375,257.7656 1466.6563,257.5313 Q1466.9219,257.2813 1467.5469,257.2969 L1470.2188,250.6406 L1469.1094,250.6406 Q1468.5,250.6406 1468.2344,250.4063 Q1467.9688,250.1719 1467.9688,249.7813 Q1467.9688,249.4063 1468.2344,249.1719 Q1468.5,248.9375 1469.1094,248.9375 L1472.7813,248.9375 L1476.1719,257.2969 Q1476.7656,257.2969 1476.9531,257.4375 Q1477.3438,257.7031 1477.3438,258.1563 Q1477.3438,258.5313 1477.0781,258.7656 Q1476.8281,259 1476.2188,259 L1473.9219,259 Q1473.3125,259 1473.0469,258.7656 Q1472.7813,258.5313 1472.7813,258.1406 Q1472.7813,257.7656 1473.0469,257.5313 Q1473.3125,257.2969 1473.9219,257.2969 L1474.3438,257.2969 L1473.9375,256.2656 Z M1473.2188,254.5625 L1471.8594,251.1875 L1470.4844,254.5625 L1473.2188,254.5625 Z " fill="#000000"/><text fill="#000000" font-family="sans-serif" font-size="14" font-style="italic" lengthAdjust="spacing" textLength="46" x="1492.25" y="260.2285">Display</text><line style="stroke:#181818;stroke-width:0.5;" x1="1344.5" x2="1653.5" y1="270.5" y2="270.5"/><line style="stroke:#181818;stroke-width:0.5;" x1="1344.5" x2="1653.5" y1="278.5" y2="278.5"/><ellipse cx="1354.5" cy="292.8047" fill="#84BE84" rx="3" ry="3" style="stroke:#038048;stroke-width:1.0;"/><text fill="#000000" font-family="sans-serif" font-size="14" lengthAdjust="spacing" textLength="133" x="1363.5" y="297.0332">Display(Game game)</text><ellipse cx="1354.5" cy="310.4141" fill="#84BE84" rx="3" ry="3" style="stroke:#038048;stroke-width:1.0;"/><text fill="#000000" font-family="sans-serif" font-size="14" lengthAdjust="spacing" textLength="183" x="1363.5" y="314.6426">DisplayPlayer(Player: player)</text><ellipse cx="1354.5" cy="328.0234" fill="#84BE84" rx="3" ry="3" style="stroke:#038048;stroke-width:1.0;"/><text fill="#000000" font-family="sans-serif" font-size="14" lengthAdjust="spacing" textLength="285" x="1363.5" y="332.252">GetCardChoice(List&lt;ICards&gt;: choices): ICard</text></g><!--MD5=[cdc67777e28cc24b855dc5439bb891da]
class DeckCreator--><g id="elem_DeckCreator"><rect codeLine="25" fill="#F1F1F1" height="48" id="DeckCreator" rx="2.5" ry="2.5" style="stroke:#181818;stroke-width:0.5;" width="113" x="1938.5" y="51"/><ellipse cx="1953.5" cy="67" fill="#A9DCDF" rx="11" ry="11" style="stroke:#181818;stroke-width:1.0;"/><path d="M1955.6875,68.7656 L1951.5469,68.7656 L1951.125,69.7969 L1951.5469,69.7969 Q1952.1563,69.7969 1952.4219,70.0313 Q1952.6875,70.2656 1952.6875,70.6563 Q1952.6875,71.0313 1952.4219,71.2656 Q1952.1563,71.5 1951.5469,71.5 L1949.25,71.5 Q1948.6406,71.5 1948.3906,71.2656 Q1948.125,71.0313 1948.125,70.6406 Q1948.125,70.2656 1948.4063,70.0313 Q1948.6719,69.7813 1949.2969,69.7969 L1951.9688,63.1406 L1950.8594,63.1406 Q1950.25,63.1406 1949.9844,62.9063 Q1949.7188,62.6719 1949.7188,62.2813 Q1949.7188,61.9063 1949.9844,61.6719 Q1950.25,61.4375 1950.8594,61.4375 L1954.5313,61.4375 L1957.9219,69.7969 Q1958.5156,69.7969 1958.7031,69.9375 Q1959.0938,70.2031 1959.0938,70.6563 Q1959.0938,71.0313 1958.8281,71.2656 Q1958.5781,71.5 1957.9688,71.5 L1955.6719,71.5 Q1955.0625,71.5 1954.7969,71.2656 Q1954.5313,71.0313 1954.5313,70.6406 Q1954.5313,70.2656 1954.7969,70.0313 Q1955.0625,69.7969 1955.6719,69.7969 L1956.0938,69.7969 L1955.6875,68.7656 Z M1954.9688,67.0625 L1953.6094,63.6875 L1952.2344,67.0625 L1954.9688,67.0625 Z " fill="#000000"/><text fill="#000000" font-family="sans-serif" font-size="14" font-style="italic" lengthAdjust="spacing" textLength="81" x="1967.5" y="72.7285">DeckCreator</text><line style="stroke:#181818;stroke-width:0.5;" x1="1939.5" x2="2050.5" y1="83" y2="83"/><line style="stroke:#181818;stroke-width:0.5;" x1="1939.5" x2="2050.5" y1="91" y2="91"/></g><!--MD5=[37d4d0ff771b108f95f310710ddd3da3]
class StandardGame--><g id="elem_StandardGame"><rect codeLine="30" fill="#F1F1F1" height="48" id="StandardGame" rx="2.5" ry="2.5" style="stroke:#181818;stroke-width:0.5;" width="128" x="1690" y="265"/><ellipse cx="1705" cy="281" fill="#ADD1B2" rx="11" ry="11" style="stroke:#181818;stroke-width:1.0;"/><path d="M1707.7656,276.875 Q1707.9219,276.6563 1708.1094,276.5469 Q1708.2969,276.4375 1708.5156,276.4375 Q1708.8906,276.4375 1709.125,276.7031 Q1709.3594,276.9531 1709.3594,277.5625 L1709.3594,279.0156 Q1709.3594,279.625 1709.125,279.8906 Q1708.8906,280.1563 1708.5156,280.1563 Q1708.1719,280.1563 1707.9688,279.9531 Q1707.7656,279.7656 1707.6563,279.25 Q1707.6094,278.8906 1707.4219,278.7031 Q1707.0938,278.3281 1706.4844,278.1094 Q1705.875,277.8906 1705.25,277.8906 Q1704.4844,277.8906 1703.8438,278.2188 Q1703.2188,278.5469 1702.7188,279.2969 Q1702.2344,280.0469 1702.2344,281.0781 L1702.2344,282.1719 Q1702.2344,283.4063 1703.125,284.2344 Q1704.0156,285.0469 1705.6094,285.0469 Q1706.5469,285.0469 1707.2031,284.7969 Q1707.5938,284.6406 1708.0156,284.2031 Q1708.2813,283.9375 1708.4219,283.8594 Q1708.5781,283.7813 1708.7813,283.7813 Q1709.1094,283.7813 1709.3594,284.0469 Q1709.625,284.2969 1709.625,284.6406 Q1709.625,284.9844 1709.2813,285.3906 Q1708.7813,285.9688 1707.9844,286.2969 Q1706.9063,286.75 1705.6094,286.75 Q1704.0938,286.75 1702.8906,286.125 Q1701.9063,285.625 1701.2188,284.5625 Q1700.5313,283.4844 1700.5313,282.2031 L1700.5313,281.0469 Q1700.5313,279.7188 1701.1406,278.5781 Q1701.7656,277.4219 1702.8594,276.8125 Q1703.9531,276.1875 1705.1875,276.1875 Q1705.9219,276.1875 1706.5625,276.3594 Q1707.2188,276.5156 1707.7656,276.875 Z " fill="#000000"/><text fill="#000000" font-family="sans-serif" font-size="14" lengthAdjust="spacing" textLength="96" x="1719" y="286.7285">StandardGame</text><line style="stroke:#181818;stroke-width:0.5;" x1="1691" x2="1817" y1="297" y2="297"/><line style="stroke:#181818;stroke-width:0.5;" x1="1691" x2="1817" y1="305" y2="305"/></g><!--MD5=[b6dcce5e5ef3c84b0b048d11301373dd]
class Game--><g id="elem_Game"><rect codeLine="34" fill="#F1F1F1" height="136.0469" id="Game" rx="2.5" ry="2.5" style="stroke:#181818;stroke-width:0.5;" width="188" x="1405" y="7"/><ellipse cx="1475.75" cy="23" fill="#A9DCDF" rx="11" ry="11" style="stroke:#181818;stroke-width:1.0;"/><path d="M1477.9375,24.7656 L1473.7969,24.7656 L1473.375,25.7969 L1473.7969,25.7969 Q1474.4063,25.7969 1474.6719,26.0313 Q1474.9375,26.2656 1474.9375,26.6563 Q1474.9375,27.0313 1474.6719,27.2656 Q1474.4063,27.5 1473.7969,27.5 L1471.5,27.5 Q1470.8906,27.5 1470.6406,27.2656 Q1470.375,27.0313 1470.375,26.6406 Q1470.375,26.2656 1470.6563,26.0313 Q1470.9219,25.7813 1471.5469,25.7969 L1474.2188,19.1406 L1473.1094,19.1406 Q1472.5,19.1406 1472.2344,18.9063 Q1471.9688,18.6719 1471.9688,18.2813 Q1471.9688,17.9063 1472.2344,17.6719 Q1472.5,17.4375 1473.1094,17.4375 L1476.7813,17.4375 L1480.1719,25.7969 Q1480.7656,25.7969 1480.9531,25.9375 Q1481.3438,26.2031 1481.3438,26.6563 Q1481.3438,27.0313 1481.0781,27.2656 Q1480.8281,27.5 1480.2188,27.5 L1477.9219,27.5 Q1477.3125,27.5 1477.0469,27.2656 Q1476.7813,27.0313 1476.7813,26.6406 Q1476.7813,26.2656 1477.0469,26.0313 Q1477.3125,25.7969 1477.9219,25.7969 L1478.3438,25.7969 L1477.9375,24.7656 Z M1477.2188,23.0625 L1475.8594,19.6875 L1474.4844,23.0625 L1477.2188,23.0625 Z " fill="#000000"/><text fill="#000000" font-family="sans-serif" font-size="14" font-style="italic" lengthAdjust="spacing" textLength="38" x="1496.25" y="28.7285">Game</text><line style="stroke:#181818;stroke-width:0.5;" x1="1406" x2="1592" y1="39" y2="39"/><rect fill="none" height="6" style="stroke:#C82930;stroke-width:1.0;" width="6" x="1413" y="50.3047"/><text fill="#000000" font-family="sans-serif" font-size="14" lengthAdjust="spacing" textLength="158" x="1425" y="57.5332">abstract PlayerLimmit: int</text><rect fill="none" height="6" style="stroke:#C82930;stroke-width:1.0;" width="6" x="1413" y="67.9141"/><text fill="#000000" font-family="sans-serif" font-size="14" lengthAdjust="spacing" textLength="133" x="1425" y="75.1426">Players: List&lt;Player&gt;</text><line style="stroke:#181818;stroke-width:0.5;" x1="1406" x2="1592" y1="82.2188" y2="82.2188"/><ellipse cx="1416" cy="96.5234" fill="#84BE84" rx="3" ry="3" style="stroke:#038048;stroke-width:1.0;"/><text fill="#000000" font-family="sans-serif" font-size="14" lengthAdjust="spacing" textLength="146" x="1425" y="100.752">Game(Display: display)</text><ellipse cx="1416" cy="114.1328" fill="#84BE84" rx="3" ry="3" style="stroke:#038048;stroke-width:1.0;"/><text fill="#000000" font-family="sans-serif" font-size="14" lengthAdjust="spacing" textLength="162" x="1425" y="118.3613">AddPlayer(Player: player)</text><ellipse cx="1416" cy="131.7422" fill="#84BE84" rx="3" ry="3" style="stroke:#038048;stroke-width:1.0;"/><text fill="#000000" font-family="sans-serif" font-size="14" lengthAdjust="spacing" textLength="78" x="1425" y="135.9707">StartGame()</text></g><!--MD5=[2cb47ba637a0d19583e6199456f6ad0b]
class Player--><g id="elem_Player"><rect codeLine="42" fill="#F1F1F1" height="136.0469" id="Player" rx="2.5" ry="2.5" style="stroke:#181818;stroke-width:0.5;" width="232" x="1076" y="221"/><ellipse cx="1167.75" cy="237" fill="#ADD1B2" rx="11" ry="11" style="stroke:#181818;stroke-width:1.0;"/><path d="M1170.5156,232.875 Q1170.6719,232.6563 1170.8594,232.5469 Q1171.0469,232.4375 1171.2656,232.4375 Q1171.6406,232.4375 1171.875,232.7031 Q1172.1094,232.9531 1172.1094,233.5625 L1172.1094,235.0156 Q1172.1094,235.625 1171.875,235.8906 Q1171.6406,236.1563 1171.2656,236.1563 Q1170.9219,236.1563 1170.7188,235.9531 Q1170.5156,235.7656 1170.4063,235.25 Q1170.3594,234.8906 1170.1719,234.7031 Q1169.8438,234.3281 1169.2344,234.1094 Q1168.625,233.8906 1168,233.8906 Q1167.2344,233.8906 1166.5938,234.2188 Q1165.9688,234.5469 1165.4688,235.2969 Q1164.9844,236.0469 1164.9844,237.0781 L1164.9844,238.1719 Q1164.9844,239.4063 1165.875,240.2344 Q1166.7656,241.0469 1168.3594,241.0469 Q1169.2969,241.0469 1169.9531,240.7969 Q1170.3438,240.6406 1170.7656,240.2031 Q1171.0313,239.9375 1171.1719,239.8594 Q1171.3281,239.7813 1171.5313,239.7813 Q1171.8594,239.7813 1172.1094,240.0469 Q1172.375,240.2969 1172.375,240.6406 Q1172.375,240.9844 1172.0313,241.3906 Q1171.5313,241.9688 1170.7344,242.2969 Q1169.6563,242.75 1168.3594,242.75 Q1166.8438,242.75 1165.6406,242.125 Q1164.6563,241.625 1163.9688,240.5625 Q1163.2813,239.4844 1163.2813,238.2031 L1163.2813,237.0469 Q1163.2813,235.7188 1163.8906,234.5781 Q1164.5156,233.4219 1165.6094,232.8125 Q1166.7031,232.1875 1167.9375,232.1875 Q1168.6719,232.1875 1169.3125,232.3594 Q1169.9688,232.5156 1170.5156,232.875 Z " fill="#000000"/><text fill="#000000" font-family="sans-serif" font-size="14" lengthAdjust="spacing" textLength="40" x="1188.25" y="242.7285">Player</text><line style="stroke:#181818;stroke-width:0.5;" x1="1077" x2="1307" y1="253" y2="253"/><rect fill="none" height="6" style="stroke:#C82930;stroke-width:1.0;" width="6" x="1084" y="264.3047"/><text fill="#000000" font-family="sans-serif" font-size="14" lengthAdjust="spacing" textLength="78" x="1096" y="271.5332">name: string</text><rect fill="none" height="6" style="stroke:#C82930;stroke-width:1.0;" width="6" x="1084" y="281.9141"/><text fill="#000000" font-family="sans-serif" font-size="14" lengthAdjust="spacing" textLength="70" x="1096" y="289.1426">deck: Deck</text><ellipse cx="1087" cy="302.5234" fill="none" rx="3" ry="3" style="stroke:#038048;stroke-width:1.0;"/><text fill="#000000" font-family="sans-serif" font-size="14" lengthAdjust="spacing" textLength="79" x="1096" y="306.752">Name: string</text><ellipse cx="1087" cy="320.1328" fill="none" rx="3" ry="3" style="stroke:#038048;stroke-width:1.0;"/><text fill="#000000" font-family="sans-serif" font-size="14" lengthAdjust="spacing" textLength="72" x="1096" y="324.3613">Deck: Deck</text><line style="stroke:#181818;stroke-width:0.5;" x1="1077" x2="1307" y1="331.4375" y2="331.4375"/><ellipse cx="1087" cy="345.7422" fill="#84BE84" rx="3" ry="3" style="stroke:#038048;stroke-width:1.0;"/><text fill="#000000" font-family="sans-serif" font-size="14" lengthAdjust="spacing" textLength="206" x="1096" y="349.9707">Player(name: string, deck: Deck)</text></g><!--MD5=[30299a58ba6b78debaaed5ddbb42f29a]
class Deck--><g id="elem_Deck"><rect codeLine="50" fill="#F1F1F1" height="118.4375" id="Deck" rx="2.5" ry="2.5" style="stroke:#181818;stroke-width:0.5;" width="243" x="1070.5" y="435"/><ellipse cx="1171.75" cy="451" fill="#ADD1B2" rx="11" ry="11" style="stroke:#181818;stroke-width:1.0;"/><path d="M1174.5156,446.875 Q1174.6719,446.6563 1174.8594,446.5469 Q1175.0469,446.4375 1175.2656,446.4375 Q1175.6406,446.4375 1175.875,446.7031 Q1176.1094,446.9531 1176.1094,447.5625 L1176.1094,449.0156 Q1176.1094,449.625 1175.875,449.8906 Q1175.6406,450.1563 1175.2656,450.1563 Q1174.9219,450.1563 1174.7188,449.9531 Q1174.5156,449.7656 1174.4063,449.25 Q1174.3594,448.8906 1174.1719,448.7031 Q1173.8438,448.3281 1173.2344,448.1094 Q1172.625,447.8906 1172,447.8906 Q1171.2344,447.8906 1170.5938,448.2188 Q1169.9688,448.5469 1169.4688,449.2969 Q1168.9844,450.0469 1168.9844,451.0781 L1168.9844,452.1719 Q1168.9844,453.4063 1169.875,454.2344 Q1170.7656,455.0469 1172.3594,455.0469 Q1173.2969,455.0469 1173.9531,454.7969 Q1174.3438,454.6406 1174.7656,454.2031 Q1175.0313,453.9375 1175.1719,453.8594 Q1175.3281,453.7813 1175.5313,453.7813 Q1175.8594,453.7813 1176.1094,454.0469 Q1176.375,454.2969 1176.375,454.6406 Q1176.375,454.9844 1176.0313,455.3906 Q1175.5313,455.9688 1174.7344,456.2969 Q1173.6563,456.75 1172.3594,456.75 Q1170.8438,456.75 1169.6406,456.125 Q1168.6563,455.625 1167.9688,454.5625 Q1167.2813,453.4844 1167.2813,452.2031 L1167.2813,451.0469 Q1167.2813,449.7188 1167.8906,448.5781 Q1168.5156,447.4219 1169.6094,446.8125 Q1170.7031,446.1875 1171.9375,446.1875 Q1172.6719,446.1875 1173.3125,446.3594 Q1173.9688,446.5156 1174.5156,446.875 Z " fill="#000000"/><text fill="#000000" font-family="sans-serif" font-size="14" lengthAdjust="spacing" textLength="32" x="1192.25" y="456.7285">Deck</text><line style="stroke:#181818;stroke-width:0.5;" x1="1071.5" x2="1312.5" y1="467" y2="467"/><rect fill="none" height="6" style="stroke:#C82930;stroke-width:1.0;" width="6" x="1078.5" y="478.3047"/><text fill="#000000" font-family="sans-serif" font-size="14" lengthAdjust="spacing" textLength="129" x="1090.5" y="485.5332">allCards: List&lt;Card&gt;</text><ellipse cx="1081.5" cy="498.9141" fill="none" rx="3" ry="3" style="stroke:#038048;stroke-width:1.0;"/><text fill="#000000" font-family="sans-serif" font-size="14" lengthAdjust="spacing" textLength="123" x="1090.5" y="503.1426">Stacks: List&lt;Stack&gt;</text><line style="stroke:#181818;stroke-width:0.5;" x1="1071.5" x2="1312.5" y1="510.2188" y2="510.2188"/><ellipse cx="1081.5" cy="524.5234" fill="#84BE84" rx="3" ry="3" style="stroke:#038048;stroke-width:1.0;"/><text fill="#000000" font-family="sans-serif" font-size="14" lengthAdjust="spacing" textLength="217" x="1090.5" y="528.752">GetStack(string stackName): stack</text><ellipse cx="1081.5" cy="542.1328" fill="#84BE84" rx="3" ry="3" style="stroke:#038048;stroke-width:1.0;"/><text fill="#000000" font-family="sans-serif" font-size="14" lengthAdjust="spacing" textLength="145" x="1090.5" y="546.3613">AddStack(string Name)</text></g><!--MD5=[1a47157467d69c83c0a10e9152875283]
class Stack--><g id="elem_Stack"><rect codeLine="57" fill="#F1F1F1" height="188.875" id="Stack" rx="2.5" ry="2.5" style="stroke:#181818;stroke-width:0.5;" width="253" x="1212.5" y="648.5"/><ellipse cx="1317.25" cy="664.5" fill="#ADD1B2" rx="11" ry="11" style="stroke:#181818;stroke-width:1.0;"/><path d="M1320.0156,660.375 Q1320.1719,660.1563 1320.3594,660.0469 Q1320.5469,659.9375 1320.7656,659.9375 Q1321.1406,659.9375 1321.375,660.2031 Q1321.6094,660.4531 1321.6094,661.0625 L1321.6094,662.5156 Q1321.6094,663.125 1321.375,663.3906 Q1321.1406,663.6563 1320.7656,663.6563 Q1320.4219,663.6563 1320.2188,663.4531 Q1320.0156,663.2656 1319.9063,662.75 Q1319.8594,662.3906 1319.6719,662.2031 Q1319.3438,661.8281 1318.7344,661.6094 Q1318.125,661.3906 1317.5,661.3906 Q1316.7344,661.3906 1316.0938,661.7188 Q1315.4688,662.0469 1314.9688,662.7969 Q1314.4844,663.5469 1314.4844,664.5781 L1314.4844,665.6719 Q1314.4844,666.9063 1315.375,667.7344 Q1316.2656,668.5469 1317.8594,668.5469 Q1318.7969,668.5469 1319.4531,668.2969 Q1319.8438,668.1406 1320.2656,667.7031 Q1320.5313,667.4375 1320.6719,667.3594 Q1320.8281,667.2813 1321.0313,667.2813 Q1321.3594,667.2813 1321.6094,667.5469 Q1321.875,667.7969 1321.875,668.1406 Q1321.875,668.4844 1321.5313,668.8906 Q1321.0313,669.4688 1320.2344,669.7969 Q1319.1563,670.25 1317.8594,670.25 Q1316.3438,670.25 1315.1406,669.625 Q1314.1563,669.125 1313.4688,668.0625 Q1312.7813,666.9844 1312.7813,665.7031 L1312.7813,664.5469 Q1312.7813,663.2188 1313.3906,662.0781 Q1314.0156,660.9219 1315.1094,660.3125 Q1316.2031,659.6875 1317.4375,659.6875 Q1318.1719,659.6875 1318.8125,659.8594 Q1319.4688,660.0156 1320.0156,660.375 Z " fill="#000000"/><text fill="#000000" font-family="sans-serif" font-size="14" lengthAdjust="spacing" textLength="35" x="1337.75" y="670.2285">Stack</text><line style="stroke:#181818;stroke-width:0.5;" x1="1213.5" x2="1464.5" y1="680.5" y2="680.5"/><rect fill="none" height="6" style="stroke:#C82930;stroke-width:1.0;" width="6" x="1220.5" y="691.8047"/><text fill="#000000" font-family="sans-serif" font-size="14" lengthAdjust="spacing" textLength="148" x="1232.5" y="699.0332">stackCards: List&lt;Card&gt;</text><ellipse cx="1223.5" cy="712.4141" fill="none" rx="3" ry="3" style="stroke:#038048;stroke-width:1.0;"/><text fill="#000000" font-family="sans-serif" font-size="14" lengthAdjust="spacing" textLength="84" x="1232.5" y="716.6426">StackSize: int</text><ellipse cx="1223.5" cy="730.0234" fill="none" rx="3" ry="3" style="stroke:#038048;stroke-width:1.0;"/><text fill="#000000" font-family="sans-serif" font-size="14" lengthAdjust="spacing" textLength="114" x="1232.5" y="734.252">StackName: string</text><line style="stroke:#181818;stroke-width:0.5;" x1="1213.5" x2="1464.5" y1="741.3281" y2="741.3281"/><ellipse cx="1223.5" cy="755.6328" fill="#84BE84" rx="3" ry="3" style="stroke:#038048;stroke-width:1.0;"/><text fill="#000000" font-family="sans-serif" font-size="14" lengthAdjust="spacing" textLength="133" x="1232.5" y="759.8613">AddCard(Card: card)</text><ellipse cx="1223.5" cy="773.2422" fill="#84BE84" rx="3" ry="3" style="stroke:#038048;stroke-width:1.0;"/><text fill="#000000" font-family="sans-serif" font-size="14" lengthAdjust="spacing" textLength="227" x="1232.5" y="777.4707">AddCard(IEnumarble&lt;Card&gt;: cards)</text><ellipse cx="1223.5" cy="790.8516" fill="#84BE84" rx="3" ry="3" style="stroke:#038048;stroke-width:1.0;"/><text fill="#000000" font-family="sans-serif" font-size="14" lengthAdjust="spacing" textLength="130" x="1232.5" y="795.0801">GetNextCard(): Card</text><ellipse cx="1223.5" cy="808.4609" fill="#84BE84" rx="3" ry="3" style="stroke:#038048;stroke-width:1.0;"/><text fill="#000000" font-family="sans-serif" font-size="14" lengthAdjust="spacing" textLength="54" x="1232.5" y="812.6895">Shuffle()</text><ellipse cx="1223.5" cy="826.0703" fill="#84BE84" rx="3" ry="3" style="stroke:#038048;stroke-width:1.0;"/><text fill="#000000" font-family="sans-serif" font-size="14" lengthAdjust="spacing" textLength="36" x="1232.5" y="830.2988">Sort()</text></g><!--MD5=[b0b3036c4561bd4fbe0cf7a91a6f76fc]
class CardFactory--><g id="elem_CardFactory"><rect codeLine="68" fill="#F1F1F1" height="188.875" id="CardFactory" rx="2.5" ry="2.5" style="stroke:#181818;stroke-width:0.5;" width="467" x="171.5" y="648.5"/><ellipse cx="361.25" cy="664.5" fill="#ADD1B2" rx="11" ry="11" style="stroke:#181818;stroke-width:1.0;"/><path d="M364.0156,660.375 Q364.1719,660.1563 364.3594,660.0469 Q364.5469,659.9375 364.7656,659.9375 Q365.1406,659.9375 365.375,660.2031 Q365.6094,660.4531 365.6094,661.0625 L365.6094,662.5156 Q365.6094,663.125 365.375,663.3906 Q365.1406,663.6563 364.7656,663.6563 Q364.4219,663.6563 364.2188,663.4531 Q364.0156,663.2656 363.9063,662.75 Q363.8594,662.3906 363.6719,662.2031 Q363.3438,661.8281 362.7344,661.6094 Q362.125,661.3906 361.5,661.3906 Q360.7344,661.3906 360.0938,661.7188 Q359.4688,662.0469 358.9688,662.7969 Q358.4844,663.5469 358.4844,664.5781 L358.4844,665.6719 Q358.4844,666.9063 359.375,667.7344 Q360.2656,668.5469 361.8594,668.5469 Q362.7969,668.5469 363.4531,668.2969 Q363.8438,668.1406 364.2656,667.7031 Q364.5313,667.4375 364.6719,667.3594 Q364.8281,667.2813 365.0313,667.2813 Q365.3594,667.2813 365.6094,667.5469 Q365.875,667.7969 365.875,668.1406 Q365.875,668.4844 365.5313,668.8906 Q365.0313,669.4688 364.2344,669.7969 Q363.1563,670.25 361.8594,670.25 Q360.3438,670.25 359.1406,669.625 Q358.1563,669.125 357.4688,668.0625 Q356.7813,666.9844 356.7813,665.7031 L356.7813,664.5469 Q356.7813,663.2188 357.3906,662.0781 Q358.0156,660.9219 359.1094,660.3125 Q360.2031,659.6875 361.4375,659.6875 Q362.1719,659.6875 362.8125,659.8594 Q363.4688,660.0156 364.0156,660.375 Z " fill="#000000"/><text fill="#000000" font-family="sans-serif" font-size="14" lengthAdjust="spacing" textLength="79" x="381.75" y="670.2285">CardFactory</text><line style="stroke:#181818;stroke-width:0.5;" x1="172.5" x2="637.5" y1="680.5" y2="680.5"/><rect fill="none" height="6" style="stroke:#C82930;stroke-width:1.0;" width="6" x="179.5" y="691.8047"/><text fill="#000000" font-family="sans-serif" font-size="14" lengthAdjust="spacing" textLength="142" x="191.5" y="699.0332">ConstuctedCard: Card</text><line style="stroke:#181818;stroke-width:0.5;" x1="172.5" x2="637.5" y1="706.1094" y2="706.1094"/><ellipse cx="182.5" cy="720.4141" fill="#84BE84" rx="3" ry="3" style="stroke:#038048;stroke-width:1.0;"/><text fill="#000000" font-family="sans-serif" font-size="14" lengthAdjust="spacing" textLength="67" x="191.5" y="724.6426">NewCard()</text><ellipse cx="182.5" cy="738.0234" fill="#84BE84" rx="3" ry="3" style="stroke:#038048;stroke-width:1.0;"/><text fill="#000000" font-family="sans-serif" font-size="14" lengthAdjust="spacing" textLength="402" x="191.5" y="742.252">AddAttackDecorator(double: offset, Action: condition (Optional))</text><ellipse cx="182.5" cy="755.6328" fill="#84BE84" rx="3" ry="3" style="stroke:#038048;stroke-width:1.0;"/><text fill="#000000" font-family="sans-serif" font-size="14" lengthAdjust="spacing" textLength="427" x="191.5" y="759.8613">AddAttackDecorator(double: multiplyer, Action: condition (Optional))</text><ellipse cx="182.5" cy="773.2422" fill="#84BE84" rx="3" ry="3" style="stroke:#038048;stroke-width:1.0;"/><text fill="#000000" font-family="sans-serif" font-size="14" lengthAdjust="spacing" textLength="416" x="191.5" y="777.4707">AddDefenseDecorator(double: offset, Action: condition (Optional))</text><ellipse cx="182.5" cy="790.8516" fill="#84BE84" rx="3" ry="3" style="stroke:#038048;stroke-width:1.0;"/><text fill="#000000" font-family="sans-serif" font-size="14" lengthAdjust="spacing" textLength="441" x="191.5" y="795.0801">AddDefenseDecorator(double: multiplyer, Action: condition (Optional))</text><ellipse cx="182.5" cy="808.4609" fill="#84BE84" rx="3" ry="3" style="stroke:#038048;stroke-width:1.0;"/><text fill="#000000" font-family="sans-serif" font-size="14" lengthAdjust="spacing" textLength="396" x="191.5" y="812.6895">AddTrapAbilityDecorator(Action: Condition, Action: TrapAction)</text><ellipse cx="182.5" cy="826.0703" fill="#84BE84" rx="3" ry="3" style="stroke:#038048;stroke-width:1.0;"/><text fill="#000000" font-family="sans-serif" font-size="14" lengthAdjust="spacing" textLength="180" x="191.5" y="830.2988">GetConstructedCard(): Card</text></g><!--MD5=[b3d1b7ce0b9aeb447f10a862a70f6cde]
class ICard--><g id="elem_ICard"><rect codeLine="80" fill="#F1F1F1" height="153.6563" id="ICard" rx="2.5" ry="2.5" style="stroke:#181818;stroke-width:0.5;" width="145" x="997.5" y="933"/><ellipse cx="1048.25" cy="949" fill="#B4A7E5" rx="11" ry="11" style="stroke:#181818;stroke-width:1.0;"/><path d="M1049.2031,945.6406 L1049.2031,952.2969 L1050.9219,952.2969 Q1051.5313,952.2969 1051.7969,952.5313 Q1052.0625,952.7656 1052.0625,953.1563 Q1052.0625,953.5313 1051.7969,953.7656 Q1051.5313,954 1050.9219,954 L1045.7813,954 Q1045.1719,954 1044.9063,953.7656 Q1044.6406,953.5313 1044.6406,953.1406 Q1044.6406,952.7656 1044.9063,952.5313 Q1045.1719,952.2969 1045.7813,952.2969 L1047.5,952.2969 L1047.5,945.6406 L1045.7813,945.6406 Q1045.1719,945.6406 1044.9063,945.4063 Q1044.6406,945.1719 1044.6406,944.7813 Q1044.6406,944.4063 1044.9063,944.1719 Q1045.1719,943.9375 1045.7813,943.9375 L1050.9219,943.9375 Q1051.5313,943.9375 1051.7969,944.1719 Q1052.0625,944.4063 1052.0625,944.7813 Q1052.0625,945.1719 1051.7969,945.4063 Q1051.5313,945.6406 1050.9219,945.6406 L1049.2031,945.6406 Z " fill="#000000"/><text fill="#000000" font-family="sans-serif" font-size="14" font-style="italic" lengthAdjust="spacing" textLength="35" x="1068.75" y="954.7285">ICard</text><line style="stroke:#181818;stroke-width:0.5;" x1="998.5" x2="1141.5" y1="965" y2="965"/><ellipse cx="1008.5" cy="979.3047" fill="none" rx="3" ry="3" style="stroke:#038048;stroke-width:1.0;"/><text fill="#000000" font-family="sans-serif" font-size="14" lengthAdjust="spacing" textLength="46" x="1017.5" y="983.5332">Id: guid</text><ellipse cx="1008.5" cy="996.9141" fill="none" rx="3" ry="3" style="stroke:#038048;stroke-width:1.0;"/><text fill="#000000" font-family="sans-serif" font-size="14" lengthAdjust="spacing" textLength="79" x="1017.5" y="1001.1426">Name: string</text><ellipse cx="1008.5" cy="1014.5234" fill="none" rx="3" ry="3" style="stroke:#038048;stroke-width:1.0;"/><text fill="#000000" font-family="sans-serif" font-size="14" lengthAdjust="spacing" textLength="114" x="1017.5" y="1018.752">Description: string</text><line style="stroke:#181818;stroke-width:0.5;" x1="998.5" x2="1141.5" y1="1025.8281" y2="1025.8281"/><ellipse cx="1008.5" cy="1040.1328" fill="#84BE84" rx="3" ry="3" style="stroke:#038048;stroke-width:1.0;"/><text fill="#000000" font-family="sans-serif" font-size="14" lengthAdjust="spacing" textLength="109" x="1017.5" y="1044.3613">GetUseCost(): int</text><ellipse cx="1008.5" cy="1057.7422" fill="#84BE84" rx="3" ry="3" style="stroke:#038048;stroke-width:1.0;"/><text fill="#000000" font-family="sans-serif" font-size="14" lengthAdjust="spacing" textLength="119" x="1017.5" y="1061.9707">GetUseAttack(): int</text><ellipse cx="1008.5" cy="1075.3516" fill="#84BE84" rx="3" ry="3" style="stroke:#038048;stroke-width:1.0;"/><text fill="#000000" font-family="sans-serif" font-size="14" lengthAdjust="spacing" textLength="109" x="1017.5" y="1079.5801">GetDefense(): int</text></g><!--MD5=[646e334e60fc35c68f3172b5b515034e]
class CardDecorator--><g id="elem_CardDecorator"><rect codeLine="89" fill="#F1F1F1" height="224.0938" id="CardDecorator" rx="2.5" ry="2.5" style="stroke:#181818;stroke-width:0.5;" width="331" x="673.5" y="631"/><ellipse cx="787.75" cy="647" fill="#A9DCDF" rx="11" ry="11" style="stroke:#181818;stroke-width:1.0;"/><path d="M789.9375,648.7656 L785.7969,648.7656 L785.375,649.7969 L785.7969,649.7969 Q786.4063,649.7969 786.6719,650.0313 Q786.9375,650.2656 786.9375,650.6563 Q786.9375,651.0313 786.6719,651.2656 Q786.4063,651.5 785.7969,651.5 L783.5,651.5 Q782.8906,651.5 782.6406,651.2656 Q782.375,651.0313 782.375,650.6406 Q782.375,650.2656 782.6563,650.0313 Q782.9219,649.7813 783.5469,649.7969 L786.2188,643.1406 L785.1094,643.1406 Q784.5,643.1406 784.2344,642.9063 Q783.9688,642.6719 783.9688,642.2813 Q783.9688,641.9063 784.2344,641.6719 Q784.5,641.4375 785.1094,641.4375 L788.7813,641.4375 L792.1719,649.7969 Q792.7656,649.7969 792.9531,649.9375 Q793.3438,650.2031 793.3438,650.6563 Q793.3438,651.0313 793.0781,651.2656 Q792.8281,651.5 792.2188,651.5 L789.9219,651.5 Q789.3125,651.5 789.0469,651.2656 Q788.7813,651.0313 788.7813,650.6406 Q788.7813,650.2656 789.0469,650.0313 Q789.3125,649.7969 789.9219,649.7969 L790.3438,649.7969 L789.9375,648.7656 Z M789.2188,647.0625 L787.8594,643.6875 L786.4844,647.0625 L789.2188,647.0625 Z " fill="#000000"/><text fill="#000000" font-family="sans-serif" font-size="14" font-style="italic" lengthAdjust="spacing" textLength="94" x="808.25" y="652.7285">CardDecorator</text><line style="stroke:#181818;stroke-width:0.5;" x1="674.5" x2="1003.5" y1="663" y2="663"/><ellipse cx="684.5" cy="677.3047" fill="none" rx="3" ry="3" style="stroke:#038048;stroke-width:1.0;"/><text fill="#000000" font-family="sans-serif" font-size="14" lengthAdjust="spacing" textLength="46" x="693.5" y="681.5332">Id: guid</text><ellipse cx="684.5" cy="694.9141" fill="none" rx="3" ry="3" style="stroke:#038048;stroke-width:1.0;"/><text fill="#000000" font-family="sans-serif" font-size="14" lengthAdjust="spacing" textLength="79" x="693.5" y="699.1426">Name: string</text><ellipse cx="684.5" cy="712.5234" fill="none" rx="3" ry="3" style="stroke:#038048;stroke-width:1.0;"/><text fill="#000000" font-family="sans-serif" font-size="14" lengthAdjust="spacing" textLength="150" x="693.5" y="716.752">DecorationName: String</text><ellipse cx="684.5" cy="730.1328" fill="none" rx="3" ry="3" style="stroke:#038048;stroke-width:1.0;"/><text fill="#000000" font-family="sans-serif" font-size="14" lengthAdjust="spacing" textLength="116" x="693.5" y="734.3613">Multaplyer: double</text><ellipse cx="684.5" cy="747.7422" fill="none" rx="3" ry="3" style="stroke:#038048;stroke-width:1.0;"/><text fill="#000000" font-family="sans-serif" font-size="14" lengthAdjust="spacing" textLength="89" x="693.5" y="751.9707">Offset: double</text><ellipse cx="684.5" cy="765.3516" fill="none" rx="3" ry="3" style="stroke:#038048;stroke-width:1.0;"/><text fill="#000000" font-family="sans-serif" font-size="14" lengthAdjust="spacing" textLength="107" x="693.5" y="769.5801">Condition: Action</text><line style="stroke:#181818;stroke-width:0.5;" x1="674.5" x2="1003.5" y1="776.6563" y2="776.6563"/><ellipse cx="684.5" cy="790.9609" fill="#84BE84" rx="3" ry="3" style="stroke:#038048;stroke-width:1.0;"/><text fill="#000000" font-family="sans-serif" font-size="14" lengthAdjust="spacing" textLength="305" x="693.5" y="795.1895">CardDecorator(double multiplyer, double: offset)</text><ellipse cx="684.5" cy="808.5703" fill="#84BE84" rx="3" ry="3" style="stroke:#038048;stroke-width:1.0;"/><text fill="#000000" font-family="sans-serif" font-size="14" lengthAdjust="spacing" textLength="202" x="693.5" y="812.7988">AddCondition(Action: Condition)</text><ellipse cx="684.5" cy="826.1797" fill="#84BE84" rx="3" ry="3" style="stroke:#038048;stroke-width:1.0;"/><text fill="#000000" font-family="sans-serif" font-size="14" lengthAdjust="spacing" textLength="153" x="693.5" y="830.4082">Virtual GetUseCost(): int</text><ellipse cx="684.5" cy="843.7891" fill="#84BE84" rx="3" ry="3" style="stroke:#038048;stroke-width:1.0;"/><text fill="#000000" font-family="sans-serif" font-size="14" lengthAdjust="spacing" textLength="163" x="693.5" y="848.0176">Virtual GetUseAttack(): int</text></g><!--MD5=[ae994add09bb5e63b44769103099dc0b]
class AttackDecorator--><g id="elem_AttackDecorator"><rect codeLine="102" fill="#F1F1F1" height="65.6094" id="AttackDecorator" rx="2.5" ry="2.5" style="stroke:#181818;stroke-width:0.5;" width="145" x="789.5" y="977"/><ellipse cx="809.45" cy="993" fill="#ADD1B2" rx="11" ry="11" style="stroke:#181818;stroke-width:1.0;"/><path d="M812.2156,988.875 Q812.3719,988.6563 812.5594,988.5469 Q812.7469,988.4375 812.9656,988.4375 Q813.3406,988.4375 813.575,988.7031 Q813.8094,988.9531 813.8094,989.5625 L813.8094,991.0156 Q813.8094,991.625 813.575,991.8906 Q813.3406,992.1563 812.9656,992.1563 Q812.6219,992.1563 812.4188,991.9531 Q812.2156,991.7656 812.1063,991.25 Q812.0594,990.8906 811.8719,990.7031 Q811.5438,990.3281 810.9344,990.1094 Q810.325,989.8906 809.7,989.8906 Q808.9344,989.8906 808.2938,990.2188 Q807.6688,990.5469 807.1688,991.2969 Q806.6844,992.0469 806.6844,993.0781 L806.6844,994.1719 Q806.6844,995.4063 807.575,996.2344 Q808.4656,997.0469 810.0594,997.0469 Q810.9969,997.0469 811.6531,996.7969 Q812.0438,996.6406 812.4656,996.2031 Q812.7313,995.9375 812.8719,995.8594 Q813.0281,995.7813 813.2313,995.7813 Q813.5594,995.7813 813.8094,996.0469 Q814.075,996.2969 814.075,996.6406 Q814.075,996.9844 813.7313,997.3906 Q813.2313,997.9688 812.4344,998.2969 Q811.3563,998.75 810.0594,998.75 Q808.5438,998.75 807.3406,998.125 Q806.3563,997.625 805.6688,996.5625 Q804.9813,995.4844 804.9813,994.2031 L804.9813,993.0469 Q804.9813,991.7188 805.5906,990.5781 Q806.2156,989.4219 807.3094,988.8125 Q808.4031,988.1875 809.6375,988.1875 Q810.3719,988.1875 811.0125,988.3594 Q811.6688,988.5156 812.2156,988.875 Z " fill="#000000"/><text fill="#000000" font-family="sans-serif" font-size="14" lengthAdjust="spacing" textLength="102" x="824.55" y="998.7285">AttackDecorator</text><line style="stroke:#181818;stroke-width:0.5;" x1="790.5" x2="933.5" y1="1009" y2="1009"/><line style="stroke:#181818;stroke-width:0.5;" x1="790.5" x2="933.5" y1="1017" y2="1017"/><ellipse cx="800.5" cy="1031.3047" fill="#84BE84" rx="3" ry="3" style="stroke:#038048;stroke-width:1.0;"/><text fill="#000000" font-family="sans-serif" font-size="14" lengthAdjust="spacing" textLength="119" x="809.5" y="1035.5332">GetUseAttack(): int</text></g><!--MD5=[f5188b816be6a715a64e1dc31e4f472d]
class CostDecorator--><g id="elem_CostDecorator"><rect codeLine="106" fill="#F1F1F1" height="65.6094" id="CostDecorator" rx="2.5" ry="2.5" style="stroke:#181818;stroke-width:0.5;" width="135" x="619.5" y="977"/><ellipse cx="639.45" cy="993" fill="#ADD1B2" rx="11" ry="11" style="stroke:#181818;stroke-width:1.0;"/><path d="M642.2156,988.875 Q642.3719,988.6563 642.5594,988.5469 Q642.7469,988.4375 642.9656,988.4375 Q643.3406,988.4375 643.575,988.7031 Q643.8094,988.9531 643.8094,989.5625 L643.8094,991.0156 Q643.8094,991.625 643.575,991.8906 Q643.3406,992.1563 642.9656,992.1563 Q642.6219,992.1563 642.4188,991.9531 Q642.2156,991.7656 642.1063,991.25 Q642.0594,990.8906 641.8719,990.7031 Q641.5438,990.3281 640.9344,990.1094 Q640.325,989.8906 639.7,989.8906 Q638.9344,989.8906 638.2938,990.2188 Q637.6688,990.5469 637.1688,991.2969 Q636.6844,992.0469 636.6844,993.0781 L636.6844,994.1719 Q636.6844,995.4063 637.575,996.2344 Q638.4656,997.0469 640.0594,997.0469 Q640.9969,997.0469 641.6531,996.7969 Q642.0438,996.6406 642.4656,996.2031 Q642.7313,995.9375 642.8719,995.8594 Q643.0281,995.7813 643.2313,995.7813 Q643.5594,995.7813 643.8094,996.0469 Q644.075,996.2969 644.075,996.6406 Q644.075,996.9844 643.7313,997.3906 Q643.2313,997.9688 642.4344,998.2969 Q641.3563,998.75 640.0594,998.75 Q638.5438,998.75 637.3406,998.125 Q636.3563,997.625 635.6688,996.5625 Q634.9813,995.4844 634.9813,994.2031 L634.9813,993.0469 Q634.9813,991.7188 635.5906,990.5781 Q636.2156,989.4219 637.3094,988.8125 Q638.4031,988.1875 639.6375,988.1875 Q640.3719,988.1875 641.0125,988.3594 Q641.6688,988.5156 642.2156,988.875 Z " fill="#000000"/><text fill="#000000" font-family="sans-serif" font-size="14" lengthAdjust="spacing" textLength="92" x="654.55" y="998.7285">CostDecorator</text><line style="stroke:#181818;stroke-width:0.5;" x1="620.5" x2="753.5" y1="1009" y2="1009"/><line style="stroke:#181818;stroke-width:0.5;" x1="620.5" x2="753.5" y1="1017" y2="1017"/><ellipse cx="630.5" cy="1031.3047" fill="#84BE84" rx="3" ry="3" style="stroke:#038048;stroke-width:1.0;"/><text fill="#000000" font-family="sans-serif" font-size="14" lengthAdjust="spacing" textLength="109" x="639.5" y="1035.5332">GetUseCost(): int</text></g><!--MD5=[91aa8dcd4d18976ffe40797add6589bf]
class TrapAbilityDecorator--><g id="elem_TrapAbilityDecorator"><rect codeLine="110" fill="#F1F1F1" height="118.4375" id="TrapAbilityDecorator" rx="2.5" ry="2.5" style="stroke:#181818;stroke-width:0.5;" width="162" x="422" y="951"/><ellipse cx="437" cy="967" fill="#ADD1B2" rx="11" ry="11" style="stroke:#181818;stroke-width:1.0;"/><path d="M439.7656,962.875 Q439.9219,962.6563 440.1094,962.5469 Q440.2969,962.4375 440.5156,962.4375 Q440.8906,962.4375 441.125,962.7031 Q441.3594,962.9531 441.3594,963.5625 L441.3594,965.0156 Q441.3594,965.625 441.125,965.8906 Q440.8906,966.1563 440.5156,966.1563 Q440.1719,966.1563 439.9688,965.9531 Q439.7656,965.7656 439.6563,965.25 Q439.6094,964.8906 439.4219,964.7031 Q439.0938,964.3281 438.4844,964.1094 Q437.875,963.8906 437.25,963.8906 Q436.4844,963.8906 435.8438,964.2188 Q435.2188,964.5469 434.7188,965.2969 Q434.2344,966.0469 434.2344,967.0781 L434.2344,968.1719 Q434.2344,969.4063 435.125,970.2344 Q436.0156,971.0469 437.6094,971.0469 Q438.5469,971.0469 439.2031,970.7969 Q439.5938,970.6406 440.0156,970.2031 Q440.2813,969.9375 440.4219,969.8594 Q440.5781,969.7813 440.7813,969.7813 Q441.1094,969.7813 441.3594,970.0469 Q441.625,970.2969 441.625,970.6406 Q441.625,970.9844 441.2813,971.3906 Q440.7813,971.9688 439.9844,972.2969 Q438.9063,972.75 437.6094,972.75 Q436.0938,972.75 434.8906,972.125 Q433.9063,971.625 433.2188,970.5625 Q432.5313,969.4844 432.5313,968.2031 L432.5313,967.0469 Q432.5313,965.7188 433.1406,964.5781 Q433.7656,963.4219 434.8594,962.8125 Q435.9531,962.1875 437.1875,962.1875 Q437.9219,962.1875 438.5625,962.3594 Q439.2188,962.5156 439.7656,962.875 Z " fill="#000000"/><text fill="#000000" font-family="sans-serif" font-size="14" lengthAdjust="spacing" textLength="130" x="451" y="972.7285">TrapAbilityDecorator</text><line style="stroke:#181818;stroke-width:0.5;" x1="423" x2="583" y1="983" y2="983"/><ellipse cx="433" cy="997.3047" fill="none" rx="3" ry="3" style="stroke:#038048;stroke-width:1.0;"/><text fill="#000000" font-family="sans-serif" font-size="14" lengthAdjust="spacing" textLength="114" x="442" y="1001.5332">TrapAbility: Action</text><line style="stroke:#181818;stroke-width:0.5;" x1="423" x2="583" y1="1008.6094" y2="1008.6094"/><ellipse cx="433" cy="1022.9141" fill="#84BE84" rx="3" ry="3" style="stroke:#038048;stroke-width:1.0;"/><text fill="#000000" font-family="sans-serif" font-size="14" lengthAdjust="spacing" textLength="109" x="442" y="1027.1426">GetUseCost(): int</text><ellipse cx="433" cy="1040.5234" fill="#84BE84" rx="3" ry="3" style="stroke:#038048;stroke-width:1.0;"/><text fill="#000000" font-family="sans-serif" font-size="14" lengthAdjust="spacing" textLength="119" x="442" y="1044.752">GetUseAttack(): int</text><ellipse cx="433" cy="1058.1328" fill="#84BE84" rx="3" ry="3" style="stroke:#038048;stroke-width:1.0;"/><text fill="#000000" font-family="sans-serif" font-size="14" lengthAdjust="spacing" textLength="109" x="442" y="1062.3613">GetDefense(): int</text></g><!--MD5=[7801747110761c073b679ff6ce997d90]
class StandardCard--><g id="elem_StandardCard"><rect codeLine="117" fill="#F1F1F1" height="153.6563" id="StandardCard" rx="2.5" ry="2.5" style="stroke:#181818;stroke-width:0.5;" width="380" x="7" y="933"/><ellipse cx="148.25" cy="949" fill="#ADD1B2" rx="11" ry="11" style="stroke:#181818;stroke-width:1.0;"/><path d="M151.0156,944.875 Q151.1719,944.6563 151.3594,944.5469 Q151.5469,944.4375 151.7656,944.4375 Q152.1406,944.4375 152.375,944.7031 Q152.6094,944.9531 152.6094,945.5625 L152.6094,947.0156 Q152.6094,947.625 152.375,947.8906 Q152.1406,948.1563 151.7656,948.1563 Q151.4219,948.1563 151.2188,947.9531 Q151.0156,947.7656 150.9063,947.25 Q150.8594,946.8906 150.6719,946.7031 Q150.3438,946.3281 149.7344,946.1094 Q149.125,945.8906 148.5,945.8906 Q147.7344,945.8906 147.0938,946.2188 Q146.4688,946.5469 145.9688,947.2969 Q145.4844,948.0469 145.4844,949.0781 L145.4844,950.1719 Q145.4844,951.4063 146.375,952.2344 Q147.2656,953.0469 148.8594,953.0469 Q149.7969,953.0469 150.4531,952.7969 Q150.8438,952.6406 151.2656,952.2031 Q151.5313,951.9375 151.6719,951.8594 Q151.8281,951.7813 152.0313,951.7813 Q152.3594,951.7813 152.6094,952.0469 Q152.875,952.2969 152.875,952.6406 Q152.875,952.9844 152.5313,953.3906 Q152.0313,953.9688 151.2344,954.2969 Q150.1563,954.75 148.8594,954.75 Q147.3438,954.75 146.1406,954.125 Q145.1563,953.625 144.4688,952.5625 Q143.7813,951.4844 143.7813,950.2031 L143.7813,949.0469 Q143.7813,947.7188 144.3906,946.5781 Q145.0156,945.4219 146.1094,944.8125 Q147.2031,944.1875 148.4375,944.1875 Q149.1719,944.1875 149.8125,944.3594 Q150.4688,944.5156 151.0156,944.875 Z " fill="#000000"/><text fill="#000000" font-family="sans-serif" font-size="14" lengthAdjust="spacing" textLength="89" x="168.75" y="954.7285">StandardCard</text><line style="stroke:#181818;stroke-width:0.5;" x1="8" x2="386" y1="965" y2="965"/><ellipse cx="18" cy="979.3047" fill="none" rx="3" ry="3" style="stroke:#038048;stroke-width:1.0;"/><text fill="#000000" font-family="sans-serif" font-size="14" lengthAdjust="spacing" textLength="46" x="27" y="983.5332">Id: guid</text><ellipse cx="18" cy="996.9141" fill="none" rx="3" ry="3" style="stroke:#038048;stroke-width:1.0;"/><text fill="#000000" font-family="sans-serif" font-size="14" lengthAdjust="spacing" textLength="79" x="27" y="1001.1426">Name: string</text><line style="stroke:#181818;stroke-width:0.5;" x1="8" x2="386" y1="1008.2188" y2="1008.2188"/><ellipse cx="18" cy="1022.5234" fill="#84BE84" rx="3" ry="3" style="stroke:#038048;stroke-width:1.0;"/><text fill="#000000" font-family="sans-serif" font-size="14" lengthAdjust="spacing" textLength="354" x="27" y="1026.752">StandardCard(double: UseCost, double: AttackDamage)</text><ellipse cx="18" cy="1040.1328" fill="#84BE84" rx="3" ry="3" style="stroke:#038048;stroke-width:1.0;"/><text fill="#000000" font-family="sans-serif" font-size="14" lengthAdjust="spacing" textLength="109" x="27" y="1044.3613">GetUseCost(): int</text><ellipse cx="18" cy="1057.7422" fill="#84BE84" rx="3" ry="3" style="stroke:#038048;stroke-width:1.0;"/><text fill="#000000" font-family="sans-serif" font-size="14" lengthAdjust="spacing" textLength="119" x="27" y="1061.9707">GetUseAttack(): int</text><ellipse cx="18" cy="1075.3516" fill="#84BE84" rx="3" ry="3" style="stroke:#038048;stroke-width:1.0;"/><text fill="#000000" font-family="sans-serif" font-size="14" lengthAdjust="spacing" textLength="109" x="27" y="1079.5801">GetDefense(): int</text></g><!--MD5=[9bd8fc5db6b49583ba34795df2b07911]
reverse link Display to ConsoleDisplay--><g id="link_Display_ConsoleDisplay"><path d="M1570.99,352.99 C1616.32,392.66 1672.2,441.55 1704.5,469.81 " fill="none" id="Display-backto-ConsoleDisplay" style="stroke:#181818;stroke-width:1.0;"/><polygon fill="none" points="1566.2,358.1,1555.75,339.66,1575.41,347.56,1566.2,358.1" style="stroke:#181818;stroke-width:1.0;"/></g><!--MD5=[0fde69ea6b7b8745cb6ccce9574025a1]
reverse link Game to StandardGame--><g id="link_Game_StandardGame"><path d="M1595.29,156.05 C1642.08,194.96 1694.86,238.83 1726.23,264.91 " fill="none" id="Game-backto-StandardGame" style="stroke:#181818;stroke-width:1.0;"/><polygon fill="none" points="1590.59,161.25,1579.68,143.08,1599.54,150.48,1590.59,161.25" style="stroke:#181818;stroke-width:1.0;"/></g><!--MD5=[14410cb4be63fedf9bef9a3c9d80389b]
reverse link CardDecorator to AttackDecorator--><g id="link_CardDecorator_AttackDecorator"><path d="M850.39,875.26 C853.68,913.12 856.98,951.11 859.21,976.88 " fill="none" id="CardDecorator-backto-AttackDecorator" style="stroke:#181818;stroke-width:1.0;"/><polygon fill="none" points="843.41,875.76,848.65,855.23,857.36,874.55,843.41,875.76" style="stroke:#181818;stroke-width:1.0;"/></g><!--MD5=[633d5d21de74dcd81c49de54d32559d5]
reverse link CardDecorator to CostDecorator--><g id="link_CardDecorator_CostDecorator"><path d="M795.54,873.56 C790.74,883.74 785.56,893.68 780,903 C763.82,930.12 740.34,956.83 721.01,976.65 " fill="none" id="CardDecorator-backto-CostDecorator" style="stroke:#181818;stroke-width:1.0;"/><polygon fill="none" points="789.25,870.49,803.76,855.05,802.04,876.17,789.25,870.49" style="stroke:#181818;stroke-width:1.0;"/></g><!--MD5=[aef622333d659fef647fca0216190b6e]
reverse link CardDecorator to TrapAbilityDecorator--><g id="link_CardDecorator_TrapAbilityDecorator"><path d="M682.26,867.62 C645.45,896.65 607.91,926.25 576.77,950.82 " fill="none" id="CardDecorator-backto-TrapAbilityDecorator" style="stroke:#181818;stroke-width:1.0;"/><polygon fill="none" points="677.93,862.12,697.97,855.23,686.6,873.11,677.93,862.12" style="stroke:#181818;stroke-width:1.0;"/></g><!--MD5=[ba785f1be731f9899c80625db5161152]
reverse link Main to StandardGame--><g id="link_Main_StandardGame"><path codeLine="127" d="M1832.45,120.01 C1811.84,164.13 1780.93,230.34 1764.74,264.99 " fill="none" id="Main-backto-StandardGame" style="stroke:#181818;stroke-width:1.0;"/><polygon fill="none" points="1837.96,108.2,1831.798,111.9456,1832.8854,119.0742,1839.0474,115.3286,1837.96,108.2" style="stroke:#181818;stroke-width:1.0;"/><text fill="#000000" font-family="sans-serif" font-size="13" lengthAdjust="spacing" textLength="45" x="1807" y="187.4951">Creates</text></g><!--MD5=[c4298a9f0e1ed7c3df9f07693f5b5c78]
reverse link Main to ConsoleDisplay--><g id="link_Main_ConsoleDisplay"><path codeLine="128" d="M1859.3,121.28 C1865.3,178.65 1869.13,279.39 1836,357 C1816.91,401.72 1779.56,444.63 1754.95,469.9 " fill="none" id="Main-backto-ConsoleDisplay" style="stroke:#181818;stroke-width:1.0;"/><polygon fill="none" points="1857.83,108.35,1854.5349,114.7643,1859.1885,120.2729,1862.4835,113.8586,1857.83,108.35" style="stroke:#181818;stroke-width:1.0;"/><text fill="#000000" font-family="sans-serif" font-size="13" lengthAdjust="spacing" textLength="45" x="1863" y="294.4951">Creates</text></g><!--MD5=[9252fefbc3a9fa3a8afa4a753ba31cd6]
reverse link ConsoleDisplay to Console--><g id="link_ConsoleDisplay_Console"><path codeLine="129" d="M1731,531.65 C1731,566.92 1731,621.33 1731,665.97 " fill="none" id="ConsoleDisplay-backto-Console" style="stroke:#181818;stroke-width:1.0;"/><polygon fill="#181818" points="1731,518.24,1727,524.24,1731,530.24,1735,524.24,1731,518.24" style="stroke:#181818;stroke-width:1.0;"/></g><!--MD5=[4a87da21cd5705cd617207f3b5ce70d6]
reverse link Game to Display--><g id="link_Game_Display"><path codeLine="130" d="M1499,156.4 C1499,184 1499,214.08 1499,238.5 " fill="none" id="Game-backto-Display" style="stroke:#181818;stroke-width:1.0;"/><polygon fill="#181818" points="1499,143.08,1495,149.08,1499,155.08,1503,149.08,1499,143.08" style="stroke:#181818;stroke-width:1.0;"/></g><!--MD5=[bbc6ee62d3d47812e486fb9dc1de45ab]
reverse link Game to Player--><g id="link_Game_Player"><path codeLine="131" d="M1393.92,148.56 C1359.99,172 1322.54,197.86 1289.2,220.88 " fill="none" id="Game-backto-Player" style="stroke:#181818;stroke-width:1.0;"/><polygon fill="#181818" points="1404.8,141.05,1397.5898,141.1665,1394.9242,147.8668,1402.1344,147.7503,1404.8,141.05" style="stroke:#181818;stroke-width:1.0;"/><polygon fill="#000000" points="1354.8858,185.0171,1363.9986,182.2954,1360.6584,177.4588,1354.8858,185.0171" style="stroke:#000000;stroke-width:1.0;"/><text fill="#000000" font-family="sans-serif" font-size="13" lengthAdjust="spacing" textLength="59" x="1368" y="187.4951">Has many</text><text fill="#000000" font-family="sans-serif" font-size="13" lengthAdjust="spacing" textLength="7" x="1390.0145" y="143.1831">1</text><text fill="#000000" font-family="sans-serif" font-size="13" lengthAdjust="spacing" textLength="32" x="1266.0813" y="210.0662">many</text></g><!--MD5=[51804acbe0d60fa6af6480eaa7bac204]
reverse link Player to Deck--><g id="link_Player_Deck"><path codeLine="133" d="M1192,370.26 C1192,391.85 1192,414.77 1192,434.89 " fill="none" id="Player-backto-Deck" style="stroke:#181818;stroke-width:1.0;"/><polygon fill="#181818" points="1192,357.03,1188,363.03,1192,369.03,1196,363.03,1192,357.03" style="stroke:#181818;stroke-width:1.0;"/><polygon fill="#000000" points="1197,401.1758,1199.9389,392.1307,1194.0611,392.1307,1197,401.1758" style="stroke:#000000;stroke-width:1.0;"/><text fill="#000000" font-family="sans-serif" font-size="13" lengthAdjust="spacing" textLength="34" x="1206" y="401.4951">Has a</text><text fill="#000000" font-family="sans-serif" font-size="13" lengthAdjust="spacing" textLength="7" x="1184.6391" y="378.3814">1</text><text fill="#000000" font-family="sans-serif" font-size="13" lengthAdjust="spacing" textLength="7" x="1184.5734" y="424.2008">1</text></g><!--MD5=[44f1b58bf0cfaa61a9cd3def39bfcd81]
reverse link Deck to Stack--><g id="link_Deck_Stack"><path codeLine="134" d="M1233.36,564.5 C1248.86,590.54 1266.73,620.57 1283.31,648.43 " fill="none" id="Deck-backto-Stack" style="stroke:#181818;stroke-width:1.0;"/><polygon fill="#181818" points="1226.65,553.22,1226.2785,560.4215,1232.7832,563.5343,1233.1547,556.3327,1226.65,553.22" style="stroke:#181818;stroke-width:1.0;"/><polygon fill="#000000" points="1259.5571,596.4724,1257.4568,587.1967,1252.4058,590.2027,1259.5571,596.4724" style="stroke:#000000;stroke-width:1.0;"/><text fill="#000000" font-family="sans-serif" font-size="13" lengthAdjust="spacing" textLength="87" x="1266" y="597.4951">Contains many</text><text fill="#000000" font-family="sans-serif" font-size="13" lengthAdjust="spacing" textLength="7" x="1223.4464" y="574.9023">1</text><text fill="#000000" font-family="sans-serif" font-size="13" lengthAdjust="spacing" textLength="32" x="1245.5972" y="637.7706">Many</text></g><!--MD5=[75a26a53e24d4d9822ced1cf8ddc7adf]
reverse link Deck to ICard--><g id="link_Deck_ICard"><path codeLine="136" d="M1130.69,563.39 C1115.73,583.8 1101.58,607.13 1093,631 C1057.15,730.77 1057.33,854.82 1062.39,932.99 " fill="none" id="Deck-backto-ICard" style="stroke:#181818;stroke-width:1.0;"/><polygon fill="#181818" points="1138.56,553,1131.749,555.3686,1131.3157,562.5666,1138.1268,560.1981,1138.56,553" style="stroke:#181818;stroke-width:1.0;"/><polygon fill="#000000" points="1097.0914,748.0925,1101.6251,739.7321,1095.8451,738.664,1097.0914,748.0925" style="stroke:#000000;stroke-width:1.0;"/><text fill="#000000" font-family="sans-serif" font-size="13" lengthAdjust="spacing" textLength="87" x="1107" y="748.4951">Contains many</text><text fill="#000000" font-family="sans-serif" font-size="13" lengthAdjust="spacing" textLength="7" x="1124.2646" y="575.074">1</text><text fill="#000000" font-family="sans-serif" font-size="13" lengthAdjust="spacing" textLength="32" x="1028.0659" y="922.1512">Many</text></g><!--MD5=[384beab849a800511c79238d0ed3a030]
reverse link Stack to ICard--><g id="link_Stack_ICard"><path codeLine="137" d="M1234.35,847.1 C1203.69,877.3 1170.85,909.65 1142.65,937.43 " fill="none" id="Stack-backto-ICard" style="stroke:#181818;stroke-width:1.0;"/><polygon fill="#181818" points="1243.78,837.8,1236.6971,839.1537,1235.2225,846.2125,1242.3054,844.8587,1243.78,837.8" style="stroke:#181818;stroke-width:1.0;"/><polygon fill="#000000" points="1189.438,897.6846,1197.9442,893.4308,1193.8193,889.2434,1189.438,897.6846" style="stroke:#000000;stroke-width:1.0;"/><text fill="#000000" font-family="sans-serif" font-size="13" lengthAdjust="spacing" textLength="130" x="1202" y="899.4951">Contains references to</text><text fill="#000000" font-family="sans-serif" font-size="13" lengthAdjust="spacing" textLength="7" x="1229.5303" y="858.862">1</text><text fill="#000000" font-family="sans-serif" font-size="13" lengthAdjust="spacing" textLength="32" x="1150.5454" y="927.7803">Many</text></g><!--MD5=[a88b99c5e90f1dd8dc05eb1f36779493]
link StandardCard to ICard--><g id="link_StandardCard_ICard"><path codeLine="139" d="M320.48,932.96 C352.25,916.91 387.18,902.34 421.5,894 C532.27,867.07 827.57,854.48 934.5,894 C951.28,900.2 967.38,909.51 982.26,920.21 " fill="none" id="StandardCard-to-ICard" style="stroke:#181818;stroke-width:1.0;stroke-dasharray:7.0,7.0;"/><polygon fill="none" points="986.98,915.01,998.52,932.78,978.42,926.08,986.98,915.01" style="stroke:#181818;stroke-width:1.0;"/></g><!--MD5=[7762ce1843a14037a605a9a577aa4c52]
link CardDecorator to ICard--><g id="link_CardDecorator_ICard"><path codeLine="140" d="M935.96,855.23 C953.98,875.9 972.61,897.27 990.04,917.27 " fill="none" id="CardDecorator-to-ICard" style="stroke:#181818;stroke-width:1.0;stroke-dasharray:7.0,7.0;"/><polygon fill="none" points="995.56,912.95,1003.42,932.62,985,922.15,995.56,912.95" style="stroke:#181818;stroke-width:1.0;"/></g><!--MD5=[a546fe94e521e1fdad96127ea64a209d]
reverse link CardFactory to StandardCard--><g id="link_CardFactory_StandardCard"><path codeLine="141" d="M323.28,848.11 C301.11,876.36 277.53,906.4 256.82,932.79 " fill="none" id="CardFactory-backto-StandardCard" style="stroke:#181818;stroke-width:1.0;"/><polygon fill="#181818" points="331.37,837.8,324.5189,840.05,323.9608,847.2395,330.8119,844.9895,331.37,837.8" style="stroke:#181818;stroke-width:1.0;"/><polygon fill="#000000" points="290.913,898.109,298.8093,892.8082,294.1855,889.1792,290.913,898.109" style="stroke:#000000;stroke-width:1.0;"/><text fill="#000000" font-family="sans-serif" font-size="13" lengthAdjust="spacing" textLength="45" x="303" y="899.4951">Creates</text><text fill="#000000" font-family="sans-serif" font-size="13" lengthAdjust="spacing" textLength="7" x="318.7058" y="858.862">1</text><text fill="#000000" font-family="sans-serif" font-size="13" lengthAdjust="spacing" textLength="32" x="228.9966" y="922.1967">Many</text></g><!--MD5=[b56350baa64ce9a4575caf2ccefd2806]
reverse link CardFactory to AttackDecorator--><g id="link_CardFactory_AttackDecorator"><path codeLine="142" d="M618.45,843.62 C670.02,870.47 724.06,901.01 772,933 C791.39,945.94 811.36,962.43 827.55,976.73 " fill="none" id="CardFactory-backto-AttackDecorator" style="stroke:#181818;stroke-width:1.0;"/><polygon fill="#181818" points="606.8,837.59,610.2944,843.8979,617.461,843.0984,613.9666,836.7905,606.8,837.59" style="stroke:#181818;stroke-width:1.0;"/><polygon fill="#000000" points="733.2179,896.8608,727.1659,889.5243,724.0094,894.4827,733.2179,896.8608" style="stroke:#000000;stroke-width:1.0;"/><text fill="#000000" font-family="sans-serif" font-size="13" lengthAdjust="spacing" textLength="45" x="738" y="899.4951">Creates</text><text fill="#000000" font-family="sans-serif" font-size="13" lengthAdjust="spacing" textLength="7" x="614.9823" y="858.9579">1</text><text fill="#000000" font-family="sans-serif" font-size="13" lengthAdjust="spacing" textLength="32" x="785.6177" y="966.1731">Many</text></g><!--MD5=[ccb9356a1c095a340b1ae652b40d9282]
reverse link CardFactory to CostDecorator--><g id="link_CardFactory_CostDecorator"><path codeLine="143" d="M514.59,846.98 C563.85,893.27 618.49,944.62 652.79,976.85 " fill="none" id="CardFactory-backto-CostDecorator" style="stroke:#181818;stroke-width:1.0;"/><polygon fill="#181818" points="504.82,837.8,506.4534,844.8237,513.565,846.0174,511.9316,838.9937,504.82,837.8" style="stroke:#181818;stroke-width:1.0;"/><polygon fill="#000000" points="580.6436,897.5998,576.0648,889.264,572.0396,893.5474,580.6436,897.5998" style="stroke:#000000;stroke-width:1.0;"/><text fill="#000000" font-family="sans-serif" font-size="13" lengthAdjust="spacing" textLength="45" x="586" y="899.4951">Creates</text><text fill="#000000" font-family="sans-serif" font-size="13" lengthAdjust="spacing" textLength="7" x="504.8935" y="858.862">1</text><text fill="#000000" font-family="sans-serif" font-size="13" lengthAdjust="spacing" textLength="32" x="610.4342" y="965.9345">Many</text></g><!--MD5=[0cefca426c34a15892b1af5cc9840c3e]
reverse link CardFactory to TrapAbilityDecorator--><g id="link_CardFactory_TrapAbilityDecorator"><path codeLine="144" d="M428.6,850.27 C433.64,868.11 439.45,886.26 446,903 C452.24,918.96 460.33,935.57 468.45,950.77 " fill="none" id="CardFactory-backto-TrapAbilityDecorator" style="stroke:#181818;stroke-width:1.0;"/><polygon fill="#181818" points="425.15,837.68,422.8756,844.523,428.3175,849.2544,430.5919,842.4114,425.15,837.68" style="stroke:#181818;stroke-width:1.0;"/><polygon fill="#000000" points="452.843,898.8237,452.241,889.3322,446.777,891.4988,452.843,898.8237" style="stroke:#000000;stroke-width:1.0;"/><text fill="#000000" font-family="sans-serif" font-size="13" lengthAdjust="spacing" textLength="45" x="460" y="899.4951">Creates</text><text fill="#000000" font-family="sans-serif" font-size="13" lengthAdjust="spacing" textLength="7" x="419.3727" y="858.7332">1</text><text fill="#000000" font-family="sans-serif" font-size="13" lengthAdjust="spacing" textLength="32" x="430.2892" y="940.0662">Many</text></g><!--MD5=[6137418130f8cc9b4a21fd5da437f018]
@startuml

class Main {
    + Main(): void
}

class Console {
    + WriteLine(string value)
    + Write(string value)
    + ReadLine(): string
    + Clear()
    {static} +ForegroundColor: ConsoleColor
    {static} +BackgroundColor: ConsoleColor
}

class ConsoleDisplay extends Display {

}

abstract Display {
    + Display(Game game)
    + DisplayPlayer(Player: player)
    + GetCardChoice(List<ICards>: choices): ICard
}

abstract DeckCreator
{
    
}

class StandardGame extends Game{

}

abstract Game {
    - abstract PlayerLimmit: int
    - Players: List<Player>
    + Game(Display: display)
    + AddPlayer(Player: player)
    + StartGame()
}

class Player {
    - name: string
    - deck: Deck
    + Player(name: string, deck: Deck)
    + Name: string
    + Deck: Deck
}

class Deck {
    - allCards: List<Card>
    + Stacks: List<Stack>
    + GetStack(string stackName): stack 
    + AddStack(string Name)
}

class Stack {
    - stackCards: List<Card>
    + StackSize: int
    + StackName: string
    + AddCard(Card: card)
    + AddCard(IEnumarble<Card>: cards)
    + GetNextCard(): Card
    + Shuffle()
    + Sort()
}

class CardFactory
{
    - ConstuctedCard: Card
    + NewCard()
    + AddAttackDecorator(double: offset, Action: condition (Optional))
    + AddAttackDecorator(double: multiplyer, Action: condition (Optional))
    + AddDefenseDecorator(double: offset, Action: condition (Optional))
    + AddDefenseDecorator(double: multiplyer, Action: condition (Optional))
    + AddTrapAbilityDecorator(Action: Condition, Action: TrapAction)
    + GetConstructedCard(): Card
}

interface ICard {
    + Id: guid
    + Name: string
    + Description: string
    + GetUseCost(): int
    + GetUseAttack(): int
    + GetDefense(): int
}

abstract CardDecorator {
    + Id: guid
    + Name: string
    + DecorationName: String
    + Multaplyer: double
    + Offset: double
    + Condition: Action
    + CardDecorator(double multiplyer, double: offset)
    + AddCondition(Action: Condition)
    + Virtual GetUseCost(): int
    + Virtual GetUseAttack(): int
}

class AttackDecorator extends CardDecorator {
    + GetUseAttack(): int
}

class CostDecorator extends CardDecorator {
    + GetUseCost(): int
}

class TrapAbilityDecorator extends CardDecorator {
    + TrapAbility: Action
    + GetUseCost(): int
    + GetUseAttack(): int
    + GetDefense(): int
}

class StandardCard {
    + Id: guid
    + Name: string
    + StandardCard(double: UseCost, double: AttackDamage)
    + GetUseCost(): int
    + GetUseAttack(): int
    + GetDefense(): int
}


Main o- - StandardGame: Creates
Main o- - ConsoleDisplay: Creates
ConsoleDisplay *- - Console
Game *- - Display
Game "1" *- - "many" Player : Has many >

Player "1" *- - "1" Deck : Has a >
Deck "1" *- - "Many" Stack : Contains many >

Deck "1" *- - "Many" ICard : Contains many >
Stack "1" *- - "Many" ICard : Contains references to  >

StandardCard .|> ICard
CardDecorator .|> ICard
CardFactory "1" *- - "Many" StandardCard : Creates >
CardFactory "1" *- - "Many" AttackDecorator : Creates >
CardFactory "1" *- - "Many" CostDecorator : Creates >
CardFactory "1" *- - "Many" TrapAbilityDecorator : Creates >

@enduml

PlantUML version 1.2022.7(Mon Aug 22 18:01:30 BST 2022)
(GPL source distribution)
Java Runtime: Java(TM) SE Runtime Environment
JVM: Java HotSpot(TM) 64-Bit Server VM
Default Encoding: Cp1252
Language: en
Country: GB
--></g></svg>